<svg width="250" height="44" viewBox="0 0 250 44" fill="none" xmlns="http://www.w3.org/2000/svg">
<rect width="250" height="44" rx="22" fill="white"/>
<path d="M24.4922 14.625H26.6641L30.9219 26H28.4297L27.6406 23.6562H23.5312L22.75 26H20.2578L24.4922 14.625ZM27.0078 21.7578L25.5781 17.5L24.1641 21.7578H27.0078ZM35.4844 14.625C36.4844 14.625 37.3776 14.8516 38.1641 15.3047C38.9557 15.7526 39.5729 16.3932 40.0156 17.2266C40.4583 18.0547 40.6797 18.9974 40.6797 20.0547V20.5781C40.6797 21.6354 40.4609 22.5755 40.0234 23.3984C39.5911 24.2214 38.9792 24.8594 38.1875 25.3125C37.3958 25.7656 36.5026 25.9948 35.5078 26H31.9844V14.625H35.4844ZM34.3281 16.5234V24.1172H35.4609C36.3776 24.1172 37.0781 23.8177 37.5625 23.2188C38.0469 22.6198 38.2943 21.763 38.3047 20.6484V20.0469C38.3047 18.8906 38.0651 18.0156 37.5859 17.4219C37.1068 16.8229 36.4062 16.5234 35.4844 16.5234H34.3281ZM45.8906 14.625C46.8906 14.625 47.7839 14.8516 48.5703 15.3047C49.362 15.7526 49.9792 16.3932 50.4219 17.2266C50.8646 18.0547 51.0859 18.9974 51.0859 20.0547V20.5781C51.0859 21.6354 50.8672 22.5755 50.4297 23.3984C49.9974 24.2214 49.3854 24.8594 48.5938 25.3125C47.8021 25.7656 46.9089 25.9948 45.9141 26H42.3906V14.625H45.8906ZM44.7344 16.5234V24.1172H45.8672C46.7839 24.1172 47.4844 23.8177 47.9688 23.2188C48.4531 22.6198 48.7005 21.763 48.7109 20.6484V20.0469C48.7109 18.8906 48.4714 18.0156 47.9922 17.4219C47.513 16.8229 46.8125 16.5234 45.8906 16.5234H44.7344ZM56.2266 22.4219H58.5781C58.5781 23.6771 59.3281 24.3047 60.8281 24.3047C61.3854 24.3047 61.8203 24.1927 62.1328 23.9688C62.4453 23.7396 62.6016 23.4219 62.6016 23.0156C62.6016 22.5729 62.4453 22.2344 62.1328 22C61.8203 21.7604 61.2578 21.5104 60.4453 21.25C59.6328 20.9844 58.9896 20.724 58.5156 20.4688C57.224 19.7708 56.5781 18.8307 56.5781 17.6484C56.5781 17.0339 56.75 16.487 57.0938 16.0078C57.4427 15.5234 57.9401 15.1458 58.5859 14.875C59.237 14.6042 59.9661 14.4688 60.7734 14.4688C61.5859 14.4688 62.3099 14.6172 62.9453 14.9141C63.5807 15.2057 64.0729 15.6198 64.4219 16.1562C64.776 16.6927 64.9531 17.3021 64.9531 17.9844H62.6094C62.6094 17.4635 62.4453 17.0599 62.1172 16.7734C61.7891 16.4818 61.3281 16.3359 60.7344 16.3359C60.1615 16.3359 59.7161 16.4583 59.3984 16.7031C59.0807 16.9427 58.9219 17.2604 58.9219 17.6562C58.9219 18.026 59.1068 18.3359 59.4766 18.5859C59.8516 18.8359 60.401 19.0703 61.125 19.2891C62.4583 19.6901 63.4297 20.1875 64.0391 20.7812C64.6484 21.375 64.9531 22.1146 64.9531 23C64.9531 23.9844 64.5807 24.7578 63.8359 25.3203C63.0911 25.8776 62.0885 26.1562 60.8281 26.1562C59.9531 26.1562 59.1562 25.9974 58.4375 25.6797C57.7188 25.3568 57.1693 24.9167 56.7891 24.3594C56.4141 23.8021 56.2266 23.1562 56.2266 22.4219ZM65.8438 16.5234V14.625H75.1094V16.5234H71.625V26H69.2812V16.5234H65.8438ZM80.6797 14.625C82.0234 14.625 83.0599 14.9245 83.7891 15.5234C84.5182 16.1224 84.8828 16.9688 84.8828 18.0625C84.8828 18.8385 84.7135 19.487 84.375 20.0078C84.0417 20.5234 83.5339 20.9349 82.8516 21.2422L85.3125 25.8906V26H82.7969L80.6641 21.8359H78.7969V26H76.4531V14.625H80.6797ZM78.7969 19.9375H80.6875C81.276 19.9375 81.7318 19.7891 82.0547 19.4922C82.3776 19.1901 82.5391 18.776 82.5391 18.25C82.5391 17.7135 82.3854 17.2917 82.0781 16.9844C81.776 16.6771 81.3099 16.5234 80.6797 16.5234H78.7969V19.9375ZM94.2812 14.625V16.5234H89.0156V19.2344H93.5156V21.0703H89.0156V24.1172H94.2969V26H86.6719V14.625H94.2812ZM98.9453 14.625H101.117L105.375 26H102.883L102.094 23.6562H97.9844L97.2031 26H94.7109L98.9453 14.625ZM101.461 21.7578L100.031 17.5L98.6172 21.7578H101.461ZM109.5 14.625L112.422 22.875L115.328 14.625H118.406V26H116.055V22.8906L116.289 17.5234L113.219 26H111.609L108.547 17.5312L108.781 22.8906V26H106.438V14.625H109.5ZM123.656 16.5234V14.625H132.922V16.5234H129.438V26H127.094V16.5234H123.656ZM133.922 20.0703C133.922 18.9505 134.122 17.9661 134.523 17.1172C134.93 16.263 135.5 15.6094 136.234 15.1562C136.974 14.6979 137.818 14.4688 138.766 14.4688C139.714 14.4688 140.555 14.6979 141.289 15.1562C142.029 15.6094 142.599 16.263 143 17.1172C143.406 17.9661 143.609 18.9479 143.609 20.0625V20.5703C143.609 21.6901 143.411 22.6719 143.016 23.5156C142.62 24.3594 142.052 25.0104 141.312 25.4688C140.578 25.9271 139.734 26.1562 138.781 26.1562C137.839 26.1562 136.997 25.9297 136.258 25.4766C135.518 25.0234 134.945 24.3776 134.539 23.5391C134.133 22.6953 133.927 21.7266 133.922 20.6328V20.0703ZM136.938 23.2734C137.365 23.9141 137.979 24.2344 138.781 24.2344C139.568 24.2344 140.172 23.9271 140.594 23.3125C141.016 22.6927 141.229 21.7917 141.234 20.6094V20.0547C141.234 18.862 141.021 17.9557 140.594 17.3359C140.167 16.7161 139.557 16.4062 138.766 16.4062C137.979 16.4062 137.372 16.7135 136.945 17.3281C136.518 17.9375 136.302 18.8333 136.297 20.0156V20.5703C136.297 21.7318 136.51 22.6328 136.938 23.2734ZM148.875 19.9453C148.875 18.8516 149.068 17.888 149.453 17.0547C149.839 16.2214 150.388 15.5833 151.102 15.1406C151.82 14.6927 152.654 14.4688 153.602 14.4688C154.914 14.4688 155.971 14.8203 156.773 15.5234C157.576 16.2266 158.039 17.2135 158.164 18.4844H155.82C155.763 17.75 155.557 17.2188 155.203 16.8906C154.854 16.5573 154.32 16.3906 153.602 16.3906C152.82 16.3906 152.234 16.6719 151.844 17.2344C151.458 17.7917 151.26 18.6589 151.25 19.8359V20.6953C151.25 21.9245 151.435 22.8229 151.805 23.3906C152.18 23.9583 152.768 24.2422 153.57 24.2422C154.294 24.2422 154.833 24.0781 155.188 23.75C155.547 23.4167 155.753 22.9036 155.805 22.2109H158.148C158.06 23.4349 157.607 24.3984 156.789 25.1016C155.977 25.8047 154.904 26.1562 153.57 26.1562C152.112 26.1562 150.964 25.6667 150.125 24.6875C149.292 23.7031 148.875 22.3542 148.875 20.6406V19.9453ZM162.961 14.625H165.133L169.391 26H166.898L166.109 23.6562H162L161.219 26H158.727L162.961 14.625ZM165.477 21.7578L164.047 17.5L162.633 21.7578H165.477ZM172.797 24.1172H177.773V26H170.453V14.625H172.797V24.1172ZM186.734 14.625V16.5234H181.469V19.2344H185.969V21.0703H181.469V24.1172H186.75V26H179.125V14.625H186.734ZM190.469 14.625L195.039 22.125V14.625H197.375V26H195.031L190.469 18.5156V26H188.125V14.625H190.469ZM202.922 14.625C203.922 14.625 204.815 14.8516 205.602 15.3047C206.393 15.7526 207.01 16.3932 207.453 17.2266C207.896 18.0547 208.117 18.9974 208.117 20.0547V20.5781C208.117 21.6354 207.898 22.5755 207.461 23.3984C207.029 24.2214 206.417 24.8594 205.625 25.3125C204.833 25.7656 203.94 25.9948 202.945 26H199.422V14.625H202.922ZM201.766 16.5234V24.1172H202.898C203.815 24.1172 204.516 23.8177 205 23.2188C205.484 22.6198 205.732 21.763 205.742 20.6484V20.0469C205.742 18.8906 205.503 18.0156 205.023 17.4219C204.544 16.8229 203.844 16.5234 202.922 16.5234H201.766ZM213.102 14.625H215.273L219.531 26H217.039L216.25 23.6562H212.141L211.359 26H208.867L213.102 14.625ZM215.617 21.7578L214.188 17.5L212.773 21.7578H215.617ZM224.82 14.625C226.164 14.625 227.201 14.9245 227.93 15.5234C228.659 16.1224 229.023 16.9688 229.023 18.0625C229.023 18.8385 228.854 19.487 228.516 20.0078C228.182 20.5234 227.674 20.9349 226.992 21.2422L229.453 25.8906V26H226.938L224.805 21.8359H222.938V26H220.594V14.625H224.82ZM222.938 19.9375H224.828C225.417 19.9375 225.872 19.7891 226.195 19.4922C226.518 19.1901 226.68 18.776 226.68 18.25C226.68 17.7135 226.526 17.2917 226.219 16.9844C225.917 16.6771 225.451 16.5234 224.82 16.5234H222.938V19.9375Z" fill="black"/>
</svg>
