<svg width="320" height="35" viewBox="0 0 320 35" fill="none" xmlns="http://www.w3.org/2000/svg">
<rect y="0.5" width="320" height="34" rx="2" fill="white"/>
<path d="M23.0391 19.5469C23.0391 19.3281 23.0052 19.1328 22.9375 18.9609C22.875 18.7839 22.7578 18.625 22.5859 18.4844C22.4193 18.3385 22.1823 18.1979 21.875 18.0625C21.5729 17.9219 21.1823 17.776 20.7031 17.625C20.1719 17.4583 19.6771 17.2708 19.2188 17.0625C18.7604 16.8542 18.3568 16.612 18.0078 16.3359C17.6641 16.0599 17.3958 15.7422 17.2031 15.3828C17.0104 15.0182 16.9141 14.5964 16.9141 14.1172C16.9141 13.6484 17.013 13.2214 17.2109 12.8359C17.4141 12.4505 17.7005 12.1198 18.0703 11.8438C18.4401 11.5625 18.875 11.3464 19.375 11.1953C19.8802 11.0443 20.4375 10.9688 21.0469 10.9688C21.8906 10.9688 22.6198 11.1224 23.2344 11.4297C23.8542 11.737 24.3333 12.1536 24.6719 12.6797C25.0104 13.2057 25.1797 13.7969 25.1797 14.4531H23.0391C23.0391 14.099 22.9635 13.7865 22.8125 13.5156C22.6667 13.2448 22.4427 13.0312 22.1406 12.875C21.8438 12.7188 21.4688 12.6406 21.0156 12.6406C20.5781 12.6406 20.2135 12.7057 19.9219 12.8359C19.6354 12.9661 19.4193 13.1432 19.2734 13.3672C19.1328 13.5911 19.0625 13.8411 19.0625 14.1172C19.0625 14.3255 19.112 14.513 19.2109 14.6797C19.3099 14.8411 19.4583 14.9948 19.6562 15.1406C19.8542 15.2812 20.099 15.4141 20.3906 15.5391C20.6875 15.6589 21.0312 15.7786 21.4219 15.8984C22.0469 16.0859 22.5938 16.2943 23.0625 16.5234C23.5365 16.7526 23.9297 17.013 24.2422 17.3047C24.5599 17.5964 24.7969 17.9245 24.9531 18.2891C25.1146 18.6536 25.1953 19.0677 25.1953 19.5312C25.1953 20.0208 25.099 20.4583 24.9062 20.8438C24.7135 21.2292 24.4375 21.5573 24.0781 21.8281C23.7188 22.099 23.2865 22.3047 22.7812 22.4453C22.2812 22.5859 21.7214 22.6562 21.1016 22.6562C20.5495 22.6562 20.0026 22.5833 19.4609 22.4375C18.9245 22.2865 18.4375 22.0625 18 21.7656C17.5625 21.4635 17.2135 21.0833 16.9531 20.625C16.6927 20.1615 16.5625 19.6198 16.5625 19H18.7188C18.7188 19.3594 18.776 19.6667 18.8906 19.9219C19.0104 20.1719 19.1771 20.3776 19.3906 20.5391C19.6094 20.6953 19.8646 20.8099 20.1562 20.8828C20.4479 20.9557 20.763 20.9922 21.1016 20.9922C21.5391 20.9922 21.8984 20.9323 22.1797 20.8125C22.4661 20.6875 22.6797 20.5156 22.8203 20.2969C22.9661 20.0781 23.0391 19.8281 23.0391 19.5469ZM30.4922 22.6562C29.8516 22.6562 29.276 22.5521 28.7656 22.3438C28.2552 22.1354 27.8203 21.8464 27.4609 21.4766C27.1068 21.1016 26.8333 20.6667 26.6406 20.1719C26.4531 19.6719 26.3594 19.1354 26.3594 18.5625V18.25C26.3594 17.599 26.4531 17.0078 26.6406 16.4766C26.8281 15.9401 27.0938 15.4792 27.4375 15.0938C27.7812 14.7083 28.1927 14.4115 28.6719 14.2031C29.151 13.9948 29.6797 13.8906 30.2578 13.8906C30.8568 13.8906 31.3854 13.9922 31.8438 14.1953C32.3021 14.3932 32.6849 14.6745 32.9922 15.0391C33.2995 15.4036 33.5312 15.8411 33.6875 16.3516C33.8438 16.8568 33.9219 17.4167 33.9219 18.0312V18.8984H27.2969V17.4766H31.8906V17.3203C31.8802 16.9922 31.8177 16.6927 31.7031 16.4219C31.5885 16.1458 31.4115 15.9271 31.1719 15.7656C30.9323 15.599 30.6224 15.5156 30.2422 15.5156C29.9349 15.5156 29.6667 15.5833 29.4375 15.7188C29.2135 15.849 29.026 16.0365 28.875 16.2812C28.7292 16.5208 28.6198 16.8073 28.5469 17.1406C28.474 17.474 28.4375 17.8438 28.4375 18.25V18.5625C28.4375 18.9167 28.4844 19.2448 28.5781 19.5469C28.6771 19.849 28.8203 20.112 29.0078 20.3359C29.2005 20.5547 29.4297 20.7266 29.6953 20.8516C29.9661 20.9714 30.2734 21.0312 30.6172 21.0312C31.0495 21.0312 31.4401 20.9479 31.7891 20.7812C32.1432 20.6094 32.4505 20.3568 32.7109 20.0234L33.75 21.1016C33.5729 21.362 33.3333 21.612 33.0312 21.8516C32.7344 22.0911 32.375 22.2865 31.9531 22.4375C31.5312 22.5833 31.0443 22.6562 30.4922 22.6562ZM39.9609 20.7031V16.8047C39.9609 16.5182 39.9115 16.2708 39.8125 16.0625C39.7135 15.8542 39.5625 15.6927 39.3594 15.5781C39.1562 15.4635 38.8984 15.4062 38.5859 15.4062C38.3099 15.4062 38.0677 15.4531 37.8594 15.5469C37.6562 15.6406 37.5 15.7734 37.3906 15.9453C37.2812 16.112 37.2266 16.3047 37.2266 16.5234H35.1562C35.1562 16.1745 35.2396 15.8438 35.4062 15.5312C35.5729 15.2135 35.8099 14.9323 36.1172 14.6875C36.4297 14.4375 36.8021 14.2422 37.2344 14.1016C37.6719 13.9609 38.1615 13.8906 38.7031 13.8906C39.3438 13.8906 39.9141 14 40.4141 14.2188C40.9193 14.4323 41.3151 14.7552 41.6016 15.1875C41.8932 15.6198 42.0391 16.1641 42.0391 16.8203V20.5078C42.0391 20.9297 42.0651 21.2917 42.1172 21.5938C42.1745 21.8906 42.2578 22.1484 42.3672 22.3672V22.5H40.2656C40.1667 22.2865 40.0911 22.0156 40.0391 21.6875C39.987 21.3542 39.9609 21.026 39.9609 20.7031ZM40.25 17.3516L40.2656 18.5781H38.9609C38.638 18.5781 38.3542 18.612 38.1094 18.6797C37.8646 18.7422 37.6641 18.8359 37.5078 18.9609C37.3516 19.0807 37.2344 19.2266 37.1562 19.3984C37.0781 19.5651 37.0391 19.7552 37.0391 19.9688C37.0391 20.1771 37.0859 20.3646 37.1797 20.5312C37.2786 20.6979 37.4193 20.8307 37.6016 20.9297C37.7891 21.0234 38.0078 21.0703 38.2578 21.0703C38.6224 21.0703 38.9401 20.9974 39.2109 20.8516C39.4818 20.7005 39.6927 20.5182 39.8438 20.3047C39.9948 20.0911 40.0755 19.888 40.0859 19.6953L40.6797 20.5859C40.6068 20.7995 40.4974 21.026 40.3516 21.2656C40.2057 21.5052 40.0182 21.7292 39.7891 21.9375C39.5599 22.1458 39.2839 22.3177 38.9609 22.4531C38.638 22.5885 38.263 22.6562 37.8359 22.6562C37.2891 22.6562 36.7995 22.5469 36.3672 22.3281C35.9349 22.1094 35.5938 21.8099 35.3438 21.4297C35.0938 21.0495 34.9688 20.6172 34.9688 20.1328C34.9688 19.6849 35.0521 19.2891 35.2188 18.9453C35.3854 18.6016 35.6328 18.3125 35.9609 18.0781C36.2891 17.8385 36.6953 17.6589 37.1797 17.5391C37.6693 17.4141 38.2292 17.3516 38.8594 17.3516H40.25ZM45.9609 15.7734V22.5H43.8984V14.0469H45.8516L45.9609 15.7734ZM48.5312 13.9922L48.5 15.9141C48.3854 15.8932 48.2552 15.8776 48.1094 15.8672C47.9688 15.8568 47.8359 15.8516 47.7109 15.8516C47.3932 15.8516 47.1146 15.8958 46.875 15.9844C46.6354 16.0677 46.4349 16.1901 46.2734 16.3516C46.1172 16.513 45.9974 16.7109 45.9141 16.9453C45.8307 17.1745 45.7839 17.4349 45.7734 17.7266L45.3281 17.6719C45.3281 17.1354 45.3828 16.638 45.4922 16.1797C45.6016 15.7214 45.7604 15.3203 45.9688 14.9766C46.1771 14.6328 46.4375 14.3672 46.75 14.1797C47.0677 13.987 47.4323 13.8906 47.8438 13.8906C47.9583 13.8906 48.0807 13.901 48.2109 13.9219C48.3464 13.9375 48.4531 13.9609 48.5312 13.9922ZM52.9766 21.0312C53.2682 21.0312 53.5286 20.974 53.7578 20.8594C53.987 20.7448 54.1693 20.5833 54.3047 20.375C54.4453 20.1667 54.5208 19.9245 54.5312 19.6484H56.4766C56.4661 20.2214 56.3047 20.7344 55.9922 21.1875C55.6797 21.6406 55.263 22 54.7422 22.2656C54.2266 22.526 53.6484 22.6562 53.0078 22.6562C52.3568 22.6562 51.7891 22.5469 51.3047 22.3281C50.8203 22.1094 50.4167 21.8047 50.0938 21.4141C49.776 21.0234 49.5365 20.5703 49.375 20.0547C49.2188 19.5391 49.1406 18.987 49.1406 18.3984V18.1484C49.1406 17.5599 49.2188 17.0078 49.375 16.4922C49.5365 15.9766 49.776 15.5234 50.0938 15.1328C50.4167 14.7422 50.8203 14.4375 51.3047 14.2188C51.7891 14 52.3542 13.8906 53 13.8906C53.6823 13.8906 54.2812 14.0234 54.7969 14.2891C55.3177 14.5547 55.724 14.9297 56.0156 15.4141C56.3125 15.8984 56.4661 16.4688 56.4766 17.125H54.5312C54.5208 16.8229 54.4531 16.5521 54.3281 16.3125C54.2031 16.0729 54.026 15.8802 53.7969 15.7344C53.5677 15.5885 53.2891 15.5156 52.9609 15.5156C52.612 15.5156 52.3203 15.5885 52.0859 15.7344C51.8568 15.8802 51.6771 16.0807 51.5469 16.3359C51.4219 16.5859 51.3333 16.8672 51.2812 17.1797C51.2344 17.487 51.2109 17.8099 51.2109 18.1484V18.3984C51.2109 18.7422 51.2344 19.0703 51.2812 19.3828C51.3333 19.6953 51.4219 19.9766 51.5469 20.2266C51.6771 20.4714 51.8568 20.6667 52.0859 20.8125C52.3203 20.9583 52.6172 21.0312 52.9766 21.0312ZM59.875 10.5V22.5H57.8047V10.5H59.875ZM59.5469 17.9688H58.9375C58.9375 17.3802 59.0156 16.8385 59.1719 16.3438C59.3281 15.849 59.5495 15.4193 59.8359 15.0547C60.1224 14.6849 60.4635 14.3984 60.8594 14.1953C61.2604 13.9922 61.7031 13.8906 62.1875 13.8906C62.6042 13.8906 62.9818 13.9505 63.3203 14.0703C63.6641 14.1849 63.9583 14.3698 64.2031 14.625C64.4479 14.8802 64.6354 15.2135 64.7656 15.625C64.901 16.0312 64.9688 16.526 64.9688 17.1094V22.5H62.8906V17.0938C62.8906 16.7031 62.8333 16.3958 62.7188 16.1719C62.6042 15.9427 62.4401 15.7786 62.2266 15.6797C62.0182 15.5807 61.7604 15.5312 61.4531 15.5312C61.1198 15.5312 60.8333 15.5964 60.5938 15.7266C60.3542 15.8516 60.1562 16.026 60 16.25C59.849 16.474 59.7344 16.7318 59.6562 17.0234C59.5833 17.3151 59.5469 17.6302 59.5469 17.9688Z" fill="#9CA3AF"/>
<g clip-path="url(#clip0_80_7982)">
<g clip-path="url(#clip1_80_7982)">
<path d="M311.267 26.2333L304.333 19.3C305.4 17.9 306 16.1 306 14.1667C306 9.36667 302.133 5.5 297.333 5.5C292.533 5.5 288.667 9.36667 288.667 14.1667C288.667 18.9667 292.533 22.8333 297.333 22.8333C299.267 22.8333 301 22.2333 302.467 21.1667L309.4 28.1C309.667 28.3667 310 28.5 310.333 28.5C310.667 28.5 311 28.3667 311.267 28.1C311.8 27.5667 311.8 26.7667 311.267 26.2333ZM297.333 20.1667C294 20.1667 291.333 17.5 291.333 14.1667C291.333 10.8333 294 8.16667 297.333 8.16667C300.667 8.16667 303.333 10.8333 303.333 14.1667C303.333 17.5 300.667 20.1667 297.333 20.1667Z" fill="#1D428A"/>
</g>
</g>
<defs>
<clipPath id="clip0_80_7982">
<rect width="24" height="24" fill="white" transform="translate(288 5.5)"/>
</clipPath>
<clipPath id="clip1_80_7982">
<rect width="24" height="24" fill="white" transform="translate(288 5.5)"/>
</clipPath>
</defs>
</svg>
