<svg width="112" height="32" viewBox="0 0 112 32" fill="none" xmlns="http://www.w3.org/2000/svg">
<rect width="112" height="32" rx="3" fill="#F4CF5F"/>
<path d="M13.3594 18.1172H18.3359V20H11.0156V8.625H13.3594V18.1172ZM19.2344 15.9766V15.7578C19.2344 14.9089 19.3984 14.151 19.7266 13.4844C20.0547 12.8125 20.5182 12.2969 21.1172 11.9375C21.7214 11.5729 22.4089 11.3906 23.1797 11.3906C24.3359 11.3906 25.2448 11.7552 25.9062 12.4844C26.5729 13.2135 26.9062 14.2474 26.9062 15.5859V16.5078H21.5234C21.5964 17.0599 21.8151 17.5026 22.1797 17.8359C22.5495 18.1693 23.0156 18.3359 23.5781 18.3359C24.4479 18.3359 25.1276 18.0208 25.6172 17.3906L26.7266 18.6328C26.388 19.112 25.9297 19.487 25.3516 19.7578C24.7734 20.0234 24.1328 20.1562 23.4297 20.1562C22.1901 20.1562 21.1797 19.776 20.3984 19.0156C19.6224 18.2552 19.2344 17.2422 19.2344 15.9766ZM21.5469 14.9688H24.6875V14.7891C24.6771 14.2891 24.5417 13.9036 24.2812 13.6328C24.0208 13.3568 23.651 13.2188 23.1719 13.2188C22.724 13.2188 22.3594 13.3698 22.0781 13.6719C21.8021 13.974 21.625 14.4062 21.5469 14.9688ZM28.8594 15.5625C29.5208 15.0833 30.4792 14.8411 31.7344 14.8359H32.7734V14.3516C32.7734 13.9609 32.6719 13.6484 32.4688 13.4141C32.2708 13.1797 31.9557 13.0625 31.5234 13.0625C31.1432 13.0625 30.8438 13.1536 30.625 13.3359C30.4115 13.5182 30.3047 13.7682 30.3047 14.0859H28.0469C28.0469 13.5964 28.1979 13.1432 28.5 12.7266C28.8021 12.3099 29.2292 11.9844 29.7812 11.75C30.3333 11.5104 30.9531 11.3906 31.6406 11.3906C32.6823 11.3906 33.5078 11.6536 34.1172 12.1797C34.7318 12.7005 35.0391 13.4349 35.0391 14.3828V18.0469C35.0443 18.849 35.1562 19.4557 35.375 19.8672V20H33.0938C32.9896 19.7969 32.9141 19.5443 32.8672 19.2422C32.3203 19.8516 31.6094 20.1562 30.7344 20.1562C29.9062 20.1562 29.2188 19.9167 28.6719 19.4375C28.1302 18.9583 27.8594 18.3542 27.8594 17.625C27.8594 16.7292 28.1927 16.0417 28.8594 15.5625ZM30.4141 18.1562C30.612 18.3385 30.8828 18.4297 31.2266 18.4297C31.5599 18.4297 31.8672 18.3568 32.1484 18.2109C32.4297 18.0599 32.638 17.8594 32.7734 17.6094V16.1562H31.9297C30.7995 16.1562 30.1979 16.5469 30.125 17.3281L30.1172 17.4609C30.1172 17.7422 30.2161 17.974 30.4141 18.1562ZM36.4453 15.7109C36.4453 14.4141 36.7526 13.3698 37.3672 12.5781C37.987 11.7865 38.8203 11.3906 39.8672 11.3906C40.7943 11.3906 41.5156 11.7083 42.0312 12.3438L42.125 11.5469H44.1719V19.7188C44.1719 20.4583 44.0026 21.1016 43.6641 21.6484C43.3307 22.1953 42.8594 22.612 42.25 22.8984C41.6406 23.1849 40.9271 23.3281 40.1094 23.3281C39.4896 23.3281 38.8854 23.2031 38.2969 22.9531C37.7083 22.7083 37.263 22.3906 36.9609 22L37.9609 20.625C38.5234 21.2552 39.2057 21.5703 40.0078 21.5703C40.6068 21.5703 41.0729 21.4089 41.4062 21.0859C41.7396 20.7682 41.9062 20.3151 41.9062 19.7266V19.2734C41.3854 19.862 40.7005 20.1562 39.8516 20.1562C38.8359 20.1562 38.013 19.7604 37.3828 18.9688C36.7578 18.1719 36.4453 17.1172 36.4453 15.8047V15.7109ZM38.7031 15.875C38.7031 16.6406 38.8568 17.2422 39.1641 17.6797C39.4714 18.112 39.8932 18.3281 40.4297 18.3281C41.1172 18.3281 41.6094 18.0703 41.9062 17.5547V14C41.6042 13.4844 41.1172 13.2266 40.4453 13.2266C39.9036 13.2266 39.4766 13.4479 39.1641 13.8906C38.8568 14.3333 38.7031 14.9948 38.7031 15.875ZM45.8594 17.0859V11.5469H48.1172V17.0078C48.1172 17.888 48.5182 18.3281 49.3203 18.3281C50.0859 18.3281 50.612 18.0625 50.8984 17.5312V11.5469H53.1641V20H51.0391L50.9766 19.1406C50.4193 19.8177 49.6484 20.1562 48.6641 20.1562C47.7578 20.1562 47.0651 19.8958 46.5859 19.375C46.112 18.8542 45.8698 18.0911 45.8594 17.0859ZM54.5625 15.9766V15.7578C54.5625 14.9089 54.7266 14.151 55.0547 13.4844C55.3828 12.8125 55.8464 12.2969 56.4453 11.9375C57.0495 11.5729 57.737 11.3906 58.5078 11.3906C59.6641 11.3906 60.5729 11.7552 61.2344 12.4844C61.901 13.2135 62.2344 14.2474 62.2344 15.5859V16.5078H56.8516C56.9245 17.0599 57.1432 17.5026 57.5078 17.8359C57.8776 18.1693 58.3438 18.3359 58.9062 18.3359C59.776 18.3359 60.4557 18.0208 60.9453 17.3906L62.0547 18.6328C61.7161 19.112 61.2578 19.487 60.6797 19.7578C60.1016 20.0234 59.4609 20.1562 58.7578 20.1562C57.5182 20.1562 56.5078 19.776 55.7266 19.0156C54.9505 18.2552 54.5625 17.2422 54.5625 15.9766ZM56.875 14.9688H60.0156V14.7891C60.0052 14.2891 59.8698 13.9036 59.6094 13.6328C59.349 13.3568 58.9792 13.2188 58.5 13.2188C58.0521 13.2188 57.6875 13.3698 57.4062 13.6719C57.1302 13.974 56.9531 14.4062 56.875 14.9688ZM67.5781 20V8.625H72.0156C72.8698 8.625 73.6198 8.78125 74.2656 9.09375C74.9167 9.40625 75.4167 9.85156 75.7656 10.4297C76.1146 11.0026 76.2891 11.6562 76.2891 12.3906C76.2891 13.5052 75.9062 14.3854 75.1406 15.0312C74.3802 15.6719 73.3255 15.9922 71.9766 15.9922H69.9219V20H67.5781ZM69.9219 14.0938H72.0156C72.6354 14.0938 73.1068 13.9479 73.4297 13.6562C73.7578 13.3646 73.9219 12.9479 73.9219 12.4062C73.9219 11.849 73.7578 11.3984 73.4297 11.0547C73.1016 10.7109 72.6484 10.5339 72.0703 10.5234H69.9219V14.0938ZM78.4219 15.5625C79.0833 15.0833 80.0417 14.8411 81.2969 14.8359H82.3359V14.3516C82.3359 13.9609 82.2344 13.6484 82.0312 13.4141C81.8333 13.1797 81.5182 13.0625 81.0859 13.0625C80.7057 13.0625 80.4062 13.1536 80.1875 13.3359C79.974 13.5182 79.8672 13.7682 79.8672 14.0859H77.6094C77.6094 13.5964 77.7604 13.1432 78.0625 12.7266C78.3646 12.3099 78.7917 11.9844 79.3438 11.75C79.8958 11.5104 80.5156 11.3906 81.2031 11.3906C82.2448 11.3906 83.0703 11.6536 83.6797 12.1797C84.2943 12.7005 84.6016 13.4349 84.6016 14.3828V18.0469C84.6068 18.849 84.7188 19.4557 84.9375 19.8672V20H82.6562C82.5521 19.7969 82.4766 19.5443 82.4297 19.2422C81.8828 19.8516 81.1719 20.1562 80.2969 20.1562C79.4688 20.1562 78.7812 19.9167 78.2344 19.4375C77.6927 18.9583 77.4219 18.3542 77.4219 17.625C77.4219 16.7292 77.7552 16.0417 78.4219 15.5625ZM79.9766 18.1562C80.1745 18.3385 80.4453 18.4297 80.7891 18.4297C81.1224 18.4297 81.4297 18.3568 81.7109 18.2109C81.9922 18.0599 82.2005 17.8594 82.3359 17.6094V16.1562H81.4922C80.362 16.1562 79.7604 16.5469 79.6875 17.3281L79.6797 17.4609C79.6797 17.7422 79.7786 17.974 79.9766 18.1562ZM85.9062 17.3125H88.0469C88.0677 17.7135 88.2161 18.0208 88.4922 18.2344C88.7682 18.4479 89.138 18.5547 89.6016 18.5547C90.0339 18.5547 90.3594 18.474 90.5781 18.3125C90.8021 18.1458 90.9141 17.9297 90.9141 17.6641C90.9141 17.388 90.776 17.1719 90.5 17.0156C90.2292 16.8542 89.7917 16.7109 89.1875 16.5859C87.1771 16.1641 86.1719 15.3099 86.1719 14.0234C86.1719 13.2734 86.4818 12.6484 87.1016 12.1484C87.7266 11.6432 88.5417 11.3906 89.5469 11.3906C90.6198 11.3906 91.4766 11.6432 92.1172 12.1484C92.763 12.6536 93.0859 13.3099 93.0859 14.1172H90.8281C90.8281 13.7943 90.724 13.5286 90.5156 13.3203C90.3073 13.1068 89.9818 13 89.5391 13C89.1589 13 88.8646 13.0859 88.6562 13.2578C88.4479 13.4297 88.3438 13.6484 88.3438 13.9141C88.3438 14.1641 88.4609 14.3672 88.6953 14.5234C88.9349 14.6745 89.3359 14.8073 89.8984 14.9219C90.4609 15.0312 90.9349 15.1562 91.3203 15.2969C92.513 15.7344 93.1094 16.4922 93.1094 17.5703C93.1094 18.3411 92.7786 18.9661 92.1172 19.4453C91.4557 19.9193 90.6016 20.1562 89.5547 20.1562C88.8464 20.1562 88.2161 20.0312 87.6641 19.7812C87.1172 19.526 86.6875 19.1797 86.375 18.7422C86.0625 18.2995 85.9062 17.8229 85.9062 17.3125ZM94.1406 17.3125H96.2812C96.3021 17.7135 96.4505 18.0208 96.7266 18.2344C97.0026 18.4479 97.3724 18.5547 97.8359 18.5547C98.2682 18.5547 98.5938 18.474 98.8125 18.3125C99.0365 18.1458 99.1484 17.9297 99.1484 17.6641C99.1484 17.388 99.0104 17.1719 98.7344 17.0156C98.4635 16.8542 98.026 16.7109 97.4219 16.5859C95.4115 16.1641 94.4062 15.3099 94.4062 14.0234C94.4062 13.2734 94.7161 12.6484 95.3359 12.1484C95.9609 11.6432 96.776 11.3906 97.7812 11.3906C98.8542 11.3906 99.7109 11.6432 100.352 12.1484C100.997 12.6536 101.32 13.3099 101.32 14.1172H99.0625C99.0625 13.7943 98.9583 13.5286 98.75 13.3203C98.5417 13.1068 98.2161 13 97.7734 13C97.3932 13 97.099 13.0859 96.8906 13.2578C96.6823 13.4297 96.5781 13.6484 96.5781 13.9141C96.5781 14.1641 96.6953 14.3672 96.9297 14.5234C97.1693 14.6745 97.5703 14.8073 98.1328 14.9219C98.6953 15.0312 99.1693 15.1562 99.5547 15.2969C100.747 15.7344 101.344 16.4922 101.344 17.5703C101.344 18.3411 101.013 18.9661 100.352 19.4453C99.6901 19.9193 98.8359 20.1562 97.7891 20.1562C97.0807 20.1562 96.4505 20.0312 95.8984 19.7812C95.3516 19.526 94.9219 19.1797 94.6094 18.7422C94.2969 18.2995 94.1406 17.8229 94.1406 17.3125Z" fill="black"/>
</svg>
