<svg width="155" height="45" viewBox="0 0 155 45" fill="none" xmlns="http://www.w3.org/2000/svg">
<g clip-path="url(#clip0_80_7908)">
<path d="M126.801 40.8359C126.801 41.6549 126.655 42.0639 126.099 42.0639C125.485 42.0639 125.397 41.5959 125.397 40.8359V38.9359H122.59V40.6319C122.59 43.4679 123.613 44.4619 126.04 44.4619C128.467 44.4619 129.607 43.0589 129.607 40.4269C129.607 38.9649 128.993 37.2689 127.385 35.3689C125.952 33.6729 125.397 32.7079 125.397 31.4219C125.397 30.5449 125.602 30.1359 126.128 30.1359C126.654 30.1359 126.8 30.4869 126.8 31.6559V33.4099H129.578V31.5679C129.578 28.6729 128.525 27.7379 126.069 27.7379C123.555 27.7379 122.59 29.3749 122.59 31.7139C122.59 33.8189 123.555 35.4859 124.929 37.0939C126.304 38.6719 126.801 39.7829 126.801 40.8359ZM120.807 30.8949H121.684V27.9129C121.509 27.8549 121.304 27.7959 121.099 27.7959C120.28 27.7959 119.725 28.4099 119.403 29.2289C119.286 28.6729 119.169 28.2059 119.081 27.9129H116.859V44.2859H119.666V31.3619C119.872 30.9819 120.223 30.8949 120.807 30.8949ZM111.276 31.4789C111.276 30.5429 111.481 30.2509 111.978 30.2509C112.475 30.2509 112.68 30.5429 112.68 31.4789V35.0169H111.277L111.276 31.4789ZM115.486 40.3969V37.9119H112.679V40.7189C112.679 41.6549 112.504 41.9469 111.977 41.9469C111.451 41.9469 111.275 41.6549 111.275 40.7189V36.8599H115.485V31.8019C115.485 28.4979 114.169 27.7379 111.976 27.7379C109.783 27.7379 108.467 28.4979 108.467 31.8019V40.3979C108.467 43.7019 109.783 44.4619 111.976 44.4619C114.171 44.4609 115.486 43.7009 115.486 40.3969ZM102.885 40.9819V31.1869C102.885 30.5729 103.09 30.2509 103.587 30.2509C103.85 30.2509 104.084 30.3089 104.289 30.4259V41.7699C104.084 41.8869 103.85 41.9449 103.587 41.9449C103.06 41.9469 102.885 41.6539 102.885 40.9819ZM104.727 44.2859H107.095V23.4099H104.288V28.5269C103.849 28.0589 103.206 27.7379 102.271 27.7379C100.926 27.7379 100.078 28.5269 100.078 30.5449V41.7999C100.078 43.6419 100.955 44.4609 102.271 44.4609C103.382 44.4609 104.025 43.9929 104.493 43.4079L104.727 44.2859ZM98.353 30.8949H99.23V27.9129C99.055 27.8549 98.85 27.7959 98.645 27.7959C97.826 27.7959 97.271 28.4099 96.949 29.2289C96.832 28.6729 96.715 28.2059 96.627 27.9129H94.405V44.2859H97.212V31.3619C97.417 30.9819 97.768 30.8949 98.353 30.8949ZM89.523 30.2509C90.02 30.2509 90.225 30.5429 90.225 31.4789V40.7179C90.225 41.6539 90.05 41.9459 89.523 41.9459C88.997 41.9459 88.821 41.6539 88.821 40.7179V31.4789C88.822 30.5439 89.026 30.2509 89.523 30.2509ZM93.032 31.8009C93.032 28.4969 91.716 27.7369 89.523 27.7369C87.33 27.7369 86.014 28.4969 86.014 31.8009V40.3969C86.014 43.7009 87.33 44.4609 89.523 44.4609C91.716 44.4609 93.032 43.7009 93.032 40.3969V31.8009ZM80.635 35.2219C81.571 35.2219 81.892 35.6309 81.892 36.6249V40.1919C81.892 41.1859 81.629 41.6539 80.752 41.6539H80.284V35.2219H80.635ZM80.752 26.0409C81.6 26.0409 81.892 26.4799 81.892 27.4439V31.4199C81.892 32.5899 81.629 32.9399 80.635 32.9399H80.284V26.0399L80.752 26.0409ZM84.699 40.1339V37.0929C84.699 35.4849 84.114 34.5489 83.296 34.0229C84.115 33.5259 84.699 32.5609 84.699 30.6609V27.6199C84.699 24.6669 83.266 23.4099 80.957 23.4099H77.478V44.2859H80.957C83.179 44.2859 84.699 42.9989 84.699 40.1339ZM73.998 44.2859V42.0049H73.735C73.121 42.0049 73.004 41.7709 73.004 41.1569V30.3679H73.969V27.9119H73.004V24.4909L70.197 24.8129V27.9119H69.525V30.3679H70.197V41.5369C70.197 43.7879 71.162 44.4609 72.39 44.4609C73.063 44.4609 73.618 44.4029 73.998 44.2859ZM66.28 44.2859H68.648V27.9119H65.841V41.8299C65.636 41.8879 65.402 41.9469 65.139 41.9469C64.642 41.9469 64.437 41.6549 64.437 40.9819V27.9119H61.63V41.7999C61.63 43.6999 62.595 44.4609 63.823 44.4609C64.905 44.4609 65.577 43.8759 66.016 43.2909C66.104 43.7009 66.192 44.0519 66.28 44.2859ZM56.748 30.2509C57.245 30.2509 57.45 30.5429 57.45 31.4789V40.7179C57.45 41.6539 57.275 41.9459 56.748 41.9459C56.222 41.9459 56.046 41.6539 56.046 40.7179V31.4789C56.046 30.5439 56.251 30.2509 56.748 30.2509ZM60.257 31.8009C60.257 28.4969 58.941 27.7369 56.748 27.7369C54.555 27.7369 53.239 28.4969 53.239 31.8009V40.3969C53.239 43.7009 54.555 44.4609 56.748 44.4609C58.941 44.4609 60.257 43.7009 60.257 40.3969V31.8009ZM48.357 30.2509C48.913 30.2509 49.059 30.4849 49.059 31.1279V44.2849H51.866V30.3979C51.866 28.4979 50.96 27.7369 49.673 27.7369C48.708 27.7369 48.094 28.2049 47.656 28.7599V23.4099H44.849V44.2859H47.656V30.3679C47.86 30.3099 48.094 30.2509 48.357 30.2509ZM43.942 44.2859V42.0049H43.679C43.065 42.0049 42.948 41.7709 42.948 41.1569V30.3679H43.913V27.9119H42.948V24.4909L40.141 24.8129V27.9119H39.469V30.3679H40.141V41.5369C40.141 43.7879 41.106 44.4609 42.334 44.4609C43.007 44.4609 43.562 44.4029 43.942 44.2859ZM37.189 26.9179C38.154 26.9179 38.973 26.1579 38.973 25.1639C38.973 24.1989 38.154 23.4099 37.189 23.4099C36.224 23.4099 35.435 24.1989 35.435 25.1639C35.435 26.1579 36.224 26.9179 37.189 26.9179ZM35.785 44.2859H38.592V27.9119H35.785V44.2859ZM34.909 23.4099H32.102L31.751 35.1639C31.722 35.9829 31.693 36.8009 31.693 37.5909L31.518 35.1639L30.494 23.4099H28.067L27.131 35.1639L26.926 37.6199L26.868 35.1639L26.488 23.4099H23.593L25.113 44.2859H28.183L29.089 33.4679L29.235 31.5679L29.352 33.4679L30.171 44.2859H33.212L34.909 23.4099Z" fill="white"/>
<path d="M91.102 21.8589H93.909V0.98291H91.102V21.8589ZM86.921 21.8589H89.728V0.98291H86.921V21.8589ZM81.337 18.2919V15.7779C81.337 14.7249 81.688 14.3449 82.74 14.3159V19.3739C82.506 19.4619 82.272 19.5199 82.068 19.5199C81.454 19.5199 81.337 19.0519 81.337 18.2919ZM83.179 21.8589H85.547V9.46191C85.547 6.45091 84.582 5.30991 82.068 5.30991C79.671 5.30991 78.589 6.30391 78.589 9.28591V11.3329H81.337V9.28691C81.337 8.11691 81.512 7.82491 82.039 7.82491C82.565 7.82491 82.741 8.08791 82.741 9.28691V12.5619C80.11 12.2109 78.531 13.3509 78.531 15.9239V19.1689C78.531 21.1569 79.32 22.0339 80.782 22.0339C81.776 22.0339 82.478 21.5079 82.916 20.8639C83.004 21.2449 83.092 21.6249 83.179 21.8589ZM73.619 7.82491C74.145 7.82491 74.35 8.11691 74.35 8.76091V18.5559C74.35 19.2279 74.175 19.5209 73.619 19.5209C73.356 19.5209 73.151 19.4629 72.947 19.3459V7.97091C73.151 7.88291 73.385 7.82491 73.619 7.82491ZM77.156 19.3739V8.11691C77.156 6.09991 76.25 5.30991 74.934 5.30991C74.028 5.30991 73.384 5.66091 72.946 6.09891V0.98291H70.139V21.8589H72.507L72.741 20.9819C73.18 21.5379 73.881 22.0349 74.963 22.0349C76.279 22.0339 77.156 21.2159 77.156 19.3739ZM69.233 21.8589V19.5779H68.97C68.356 19.5779 68.239 19.3439 68.239 18.7299V7.94191H69.204V5.48591H68.239V2.06491L65.432 2.38691V5.48591H64.76V7.94191H65.432V19.1099C65.432 21.3609 66.397 22.0339 67.625 22.0339C68.298 22.0339 68.853 21.9759 69.233 21.8589ZM59.672 9.05291C59.672 8.11691 59.877 7.82491 60.374 7.82491C60.871 7.82491 61.076 8.11691 61.076 9.05291V12.5909H59.673L59.672 9.05291ZM63.883 17.9699V15.4849H61.076V18.2919C61.076 19.2279 60.901 19.5199 60.374 19.5199C59.848 19.5199 59.672 19.2279 59.672 18.2919V14.4329H63.882V9.37391C63.882 6.06991 62.566 5.30991 60.373 5.30991C58.18 5.30991 56.864 6.06991 56.864 9.37391V17.9699C56.864 21.2739 58.18 22.0339 60.373 22.0339C62.567 22.0339 63.883 21.2739 63.883 17.9699ZM51.983 14.3149L53.445 21.8579H56.281L54.293 12.8529L56.31 5.48491H53.503L51.983 12.6189H51.837V0.98291H49.03V21.8589H51.837V14.3159H51.983V14.3149ZM45.083 18.4089C45.083 19.2279 44.937 19.6369 44.381 19.6369C43.767 19.6369 43.679 19.1689 43.679 18.4089V16.5089H40.872V18.2049C40.872 21.0409 41.895 22.0349 44.322 22.0349C46.749 22.0349 47.889 20.6319 47.889 17.9999C47.889 16.5379 47.275 14.8419 45.667 12.9419C44.234 11.2459 43.679 10.2809 43.679 8.99491C43.679 8.11791 43.884 7.70891 44.41 7.70891C44.936 7.70891 45.082 8.05991 45.082 9.22891V10.9829H47.86V9.13991C47.86 6.24491 46.807 5.30991 44.351 5.30991C41.837 5.30991 40.872 6.94691 40.872 9.28591C40.872 11.3909 41.837 13.0579 43.211 14.6659C44.586 16.2449 45.083 17.3559 45.083 18.4089ZM35.523 18.2919V15.7779C35.523 14.7249 35.874 14.3449 36.926 14.3159V19.3739C36.692 19.4619 36.458 19.5199 36.254 19.5199C35.64 19.5199 35.523 19.0519 35.523 18.2919ZM37.365 21.8589H39.733V9.46191C39.733 6.45091 38.768 5.30991 36.254 5.30991C33.857 5.30991 32.775 6.30391 32.775 9.28591V11.3329H35.523V9.28691C35.523 8.11691 35.698 7.82491 36.225 7.82491C36.751 7.82491 36.927 8.08791 36.927 9.28691V12.5619C34.296 12.2109 32.717 13.3509 32.717 15.9239V19.1689C32.717 21.1569 33.506 22.0339 34.968 22.0339C35.962 22.0339 36.664 21.5079 37.102 20.8639C37.189 21.2449 37.277 21.6249 37.365 21.8589ZM27.482 12.7949C28.418 12.7949 28.739 13.2039 28.739 14.1979V17.7649C28.739 18.7589 28.476 19.2269 27.599 19.2269H27.131V12.7949H27.482ZM27.599 3.61391C28.447 3.61391 28.739 4.05291 28.739 5.01691V8.99291C28.739 10.1629 28.476 10.5129 27.482 10.5129H27.131V3.61291H27.599V3.61391ZM31.546 17.7069V14.6659C31.546 13.0579 30.961 12.1219 30.143 11.5959C30.962 11.0989 31.546 10.1339 31.546 8.23391V5.19291C31.546 2.23991 30.113 0.98291 27.804 0.98291H24.325V21.8589H27.804C30.026 21.8589 31.546 20.5719 31.546 17.7069Z" fill="white"/>
<path d="M15.201 -0.0100098H4.66C2.089 -0.0100098 0 2.08199 0 4.64999V40.344C0 42.916 2.089 45.01 4.66 45.01H15.194C17.765 45.01 19.864 42.916 19.864 40.344V4.64999C19.864 2.08199 17.771 -0.0100098 15.201 -0.0100098Z" fill="white"/>
<path d="M14.748 39.6601C14.176 39.1491 14.558 38.9331 14.535 38.7321C14.157 37.1731 12.919 36.2301 13.56 35.7151C13.402 35.2001 13.08 34.5541 13.092 34.5551C11.162 33.4471 9.519 31.6461 9.24 31.3821C8.901 31.0141 8.325 30.6451 8.216 30.3461C7.752 29.9201 5.477 26.6931 4.947 25.5041L4.024 25.3741C3.604 23.6581 2.202 22.2201 2.167 20.5001C2.154 19.8501 2.462 18.4561 2.576 18.1781C2.688 17.8961 3.226 17.4331 3.226 17.4331V16.9731C1.212 17.0301 1.791 16.8251 1.444 16.0411C1.2 15.4991 1.374 15.3801 1.462 15.0041C1.732 13.8941 2.63 12.1821 3.001 11.4041C3.115 11.0121 3.503 10.0651 3.503 10.0651C5.004 7.00811 5.564 7.23311 7.347 7.06111L7.435 6.93511C9.222 6.85811 8.93 6.72311 9.182 5.00211C8.921 5.11411 8.844 4.46311 8.844 4.46311C8.702 3.48311 9.114 3.66911 9.311 3.65011C9.353 2.04011 9.518 1.53311 10.679 1.08911H4.662C2.693 1.08911 1.099 2.68511 1.099 4.65211V40.3441C1.099 42.3141 2.694 43.9091 4.662 43.9091H15.201C13.995 43.2571 14.707 42.0161 14.748 39.6601Z" fill="#1D428A"/>
<path d="M12.586 8.24311L12.597 8.39511C12.919 8.58211 13.081 8.73511 13.405 8.94311C14.265 9.48411 15.324 10.4461 15.19 13.7601C15.431 14.4831 15.537 15.9031 15.76 16.3581C16.208 17.2461 16.507 17.8231 16.637 18.6611C16.637 18.6611 16.766 19.9661 16.934 20.0601C17.823 20.2611 17.566 20.3481 17.696 20.5001C17.834 20.6791 18.347 20.6701 18.347 21.1491C18.525 21.3871 18.657 21.6351 18.757 21.8921V4.65011C18.757 2.68511 17.158 1.08911 15.199 1.08911H11.793C12.341 1.28311 12.649 1.51311 12.829 1.87711C13.269 1.91511 13.792 2.90011 12.977 4.35611C13.338 4.59611 13.056 4.95511 12.797 5.37211C12.721 5.50611 12.638 5.74311 12.398 5.72711C12.089 6.37811 11.715 7.00811 11.433 7.04811C11.347 7.15411 11.285 7.43411 11.414 7.56511C11.831 7.75111 12.336 8.00611 12.586 8.24311Z" fill="#C8102E"/>
<path d="M18.759 24.231C18.297 25.403 17.147 26.232 15.803 26.232C14.044 26.232 12.627 24.81 12.627 23.057C12.627 21.559 13.657 20.303 15.054 19.968C14.688 19.052 13.915 17.567 13.686 17.079C13.468 16.595 12.945 13.575 12.832 12.978C12.807 12.848 11.462 13.758 11.459 13.814C11.381 13.89 10.45 16.319 10.411 16.451C10.392 16.534 10.39 16.858 10.39 16.858C10.39 16.858 10.848 16.915 11.111 17.712C11.372 18.509 12.166 21.418 12.166 21.418C12.166 21.418 11.951 21.64 11.942 21.627C12.945 24.985 12.595 26.431 13.045 27.416C13.611 28.804 13.763 28.622 14.249 29.789C14.597 30.639 14.986 33.983 15.115 34.131C15.657 34.817 15.948 35.354 15.948 35.741C15.948 36.13 15.489 37.282 15.656 37.953C15.758 38.347 15.81 39.232 15.994 39.4C15.994 39.4 16.163 39.732 16.08 39.879C16.056 39.93 16.008 40.007 16.029 40.068C16.328 41.123 17.292 42.921 15.73 43.863H15.763C17.467 43.599 18.758 42.137 18.758 40.342V24.231H18.759Z" fill="#C8102E"/>
<path d="M4.09398 41.6661H3.34198V35.2041H4.53398L5.49198 40.4991C5.41098 39.2321 5.30398 37.7031 5.30398 36.3991V35.2041H6.05698V41.6661H4.96298L4.00498 36.4891C4.06798 37.6841 4.09398 38.6351 4.09398 39.6301V41.6661ZM10.721 35.9281H10.676C10.622 36.7061 10.515 38.0731 10.479 38.5081L10.381 39.6211H11.052L10.953 38.5081C10.918 38.0641 10.793 36.7151 10.721 35.9281ZM11.106 40.3541H10.327L10.219 41.6661H9.35098L10.13 35.2041H11.366L12.118 41.6661H11.214L11.106 40.3541ZM7.51498 36.0181V38.1541H7.83698C8.14098 38.1541 8.22198 38.0451 8.22198 37.6921V36.4521C8.22198 36.1531 8.13198 36.0171 7.84598 36.0171H7.51498V36.0181ZM7.51498 38.8601V40.8511H7.84598C8.14198 40.8511 8.22198 40.6971 8.22198 40.3891V39.2941C8.22198 38.9771 8.12298 38.8601 7.83698 38.8601H7.51498ZM6.65498 41.6661V35.2041H7.90898C8.63398 35.2041 9.08198 35.5931 9.08198 36.4981V37.4571C9.08198 38.0451 8.90298 38.3441 8.65198 38.4891C8.90298 38.6611 9.08198 38.9511 9.08198 39.4391V40.3811C9.08198 41.2681 8.60698 41.6661 7.90898 41.6661H6.65498Z" fill="white"/>
<path d="M155 0.983887H133.881V22.1029H155V0.983887Z" fill="#00121E"/>
<path d="M144.575 11.134C144.766 12.216 145.243 13.652 145.243 13.652C145.243 13.652 145.222 13.875 145.59 14.419C145.958 14.964 146.264 15.057 146.264 15.057C146.184 15.101 146.264 15.083 146.264 15.083L146.289 15.073L146.529 15.232C147.052 15.465 147.523 15.346 148.244 15.31C148.965 15.274 150.192 14.62 150.192 14.62L150.218 14.46C148.757 15.155 148.488 15.103 148.178 15.185C147.872 15.266 147.139 15.376 146.427 15.018L146.559 14.967L147.225 13.972L147.784 12.879C147.784 12.879 148.456 11.579 148.894 10.143C149.32 8.74796 149.427 7.72696 149.427 7.72696C149.427 7.72696 149.516 6.83896 149.498 6.74996C149.48 6.66096 149.507 5.80896 149.419 5.55996L149.214 5.35596C149.312 5.98396 149.311 5.97596 149.32 6.37796C149.329 6.77696 149.311 7.31096 149.231 8.04696C149.152 8.78496 148.769 10.055 148.769 10.055C148.769 10.055 148.13 11.973 147.712 12.639C147.295 13.306 147.019 13.998 147.019 13.998C147.019 13.998 146.536 14.722 146.339 14.972C145.653 14.583 145.523 13.868 145.523 13.868C144.995 13.174 144.196 8.41596 144.196 8.41596L144.051 8.44196L144.388 10.271L144.575 11.134Z" fill="url(#paint0_radial_80_7908)"/>
<path d="M150.192 17.355C149.752 17.384 148.538 17.04 148.538 17.04C148.538 17.04 147.759 16.702 147.626 16.684C147.494 16.666 146.087 15.93 146.087 15.93H145.459L145.271 15.568C145.271 15.568 144.782 14.91 144.443 14.783C144.104 14.656 143.193 13.926 143.193 13.926L143.041 13.666C143.041 13.666 142.16 12.887 141.852 12.737C141.544 12.586 139.594 10.268 139.594 10.268C139.594 10.268 139.074 9.25998 138.851 9.11398C138.642 8.97898 138.124 7.78098 138.056 7.62198C138.051 7.61098 138.048 7.60498 138.048 7.60498L138.024 7.91298L138.356 8.61298L138.809 9.38598C138.809 9.38598 139.353 10.074 139.552 10.424C139.75 10.774 141.23 12.361 141.23 12.361L143.107 14.052L144.043 14.734L144.339 15.066L145.083 15.984L146.158 16.129L147.329 16.709C147.329 16.709 148.507 17.186 148.555 17.21C148.603 17.234 149.672 17.481 149.672 17.481L150.088 17.56C150.088 17.56 150.633 17.324 150.192 17.355Z" fill="url(#paint1_radial_80_7908)"/>
<path d="M141.236 15.7079C140.828 15.5419 140.558 15.7289 140.558 15.7289L140.957 15.8789L142.398 16.0659L143.766 16.1589C143.766 16.1589 144.336 16.1959 144.513 16.2939C144.689 16.3919 144.778 16.1329 144.778 16.1329L143.663 15.9829C143.663 15.9829 141.646 15.8749 141.236 15.7079Z" fill="url(#paint2_radial_80_7908)"/>
<path d="M144.526 11.0868C144.717 12.1698 145.195 13.6048 145.195 13.6048C145.195 13.6048 145.174 13.8278 145.542 14.3718C145.91 14.9158 146.214 15.0098 146.214 15.0098C146.135 15.0548 146.214 15.0368 146.214 15.0368L146.239 15.0268L146.479 15.1858C147.002 15.4188 147.473 15.2998 148.194 15.2638C148.914 15.2278 150.142 14.5738 150.142 14.5738L150.168 14.4128C148.707 15.1068 148.437 15.0558 148.127 15.1388C147.822 15.2198 147.089 15.3298 146.377 14.9728L146.508 14.9208L147.174 13.9258L147.734 12.8338C147.734 12.8338 148.406 11.5338 148.844 10.0978C149.27 8.70381 149.377 7.68181 149.377 7.68181C149.377 7.68181 149.466 6.79381 149.448 6.70481C149.431 6.61581 149.457 5.76281 149.369 5.51381L149.165 5.30981C149.263 5.93781 149.262 5.92981 149.271 6.33181C149.28 6.73081 149.262 7.26481 149.182 8.00181C149.102 8.73781 148.72 10.0088 148.72 10.0088C148.72 10.0088 148.081 11.9278 147.664 12.5938C147.246 13.2598 146.971 13.9528 146.971 13.9528C146.971 13.9528 146.488 14.6758 146.291 14.9268C145.605 14.5368 145.475 13.8218 145.475 13.8218C144.947 13.1278 144.148 8.37081 144.148 8.37081L144.003 8.39681L144.34 10.2258L144.526 11.0868Z" fill="url(#paint3_radial_80_7908)"/>
<path d="M150.143 17.3079C149.703 17.3379 148.489 16.9939 148.489 16.9939C148.489 16.9939 147.71 16.6559 147.577 16.6379C147.445 16.6189 146.037 15.8829 146.037 15.8829H145.409L145.222 15.5209C145.222 15.5209 144.733 14.8629 144.394 14.7359C144.055 14.6089 143.144 13.8789 143.144 13.8789L142.993 13.6189C142.993 13.6189 142.111 12.8399 141.804 12.6889C141.496 12.5379 139.545 10.2199 139.545 10.2199C139.545 10.2199 139.026 9.21091 138.803 9.06591C138.595 8.93091 138.076 7.73291 138.007 7.57391C138.002 7.56291 138 7.55591 138 7.55591L137.976 7.86491L138.308 8.56491L138.761 9.33691C138.761 9.33691 139.305 10.0249 139.504 10.3749C139.703 10.7249 141.183 12.3139 141.183 12.3139L143.06 14.0039L143.996 14.6859L144.292 15.0179L145.035 15.9359L146.109 16.0809L147.281 16.6609C147.281 16.6609 148.458 17.1379 148.506 17.1619C148.554 17.1859 149.624 17.4339 149.624 17.4339L150.04 17.5119C150.04 17.5119 150.584 17.2779 150.143 17.3079Z" fill="url(#paint4_radial_80_7908)"/>
<path d="M141.188 15.6617C140.779 15.4957 140.51 15.6827 140.51 15.6827L140.909 15.8327L142.35 16.0197L143.717 16.1127C143.717 16.1127 144.287 16.1487 144.463 16.2477C144.64 16.3457 144.728 16.0867 144.728 16.0867L143.613 15.9367C143.613 15.9367 141.597 15.8277 141.188 15.6617Z" fill="url(#paint5_radial_80_7908)"/>
<path fill-rule="evenodd" clip-rule="evenodd" d="M142.365 2.84277C142.365 2.84277 141.025 3.13077 139.696 3.94777C139.696 3.94777 138.891 4.61177 138.814 4.70177C138.814 4.70177 140.252 3.65277 141.702 3.50177L141.768 3.50877L142.365 2.84277Z" fill="url(#paint6_linear_80_7908)"/>
<path fill-rule="evenodd" clip-rule="evenodd" d="M144.671 7.96497L145.401 7.35097L146.139 6.70597L146.924 6.11497L147.957 5.55497L148.961 5.08897L150.01 4.76997C150.01 4.76997 149.746 4.32697 149.52 4.36597C149.294 4.40497 148.557 4.60697 148.557 4.60697C148.557 4.60697 147.57 5.05797 146.769 4.87897C145.968 4.69997 147.018 4.11697 147.018 4.11697L147.231 4.08497L147.713 3.66697L148.231 3.80097L148.532 3.93597L148.615 3.94597L148.628 3.94297C148.628 3.94297 148.335 3.43797 147.956 3.28497C147.578 3.13197 147.019 3.23297 146.565 3.48197C146.112 3.73097 145.612 3.65797 145.612 3.65797C145.612 3.65797 145.137 3.54197 145.347 3.42497C145.557 3.30897 146.435 3.05997 146.435 3.05997V3.01397C146.435 3.01397 146.094 2.62797 145.309 2.64097C145.309 2.64097 145.006 2.61997 144.64 2.82797L144.165 3.06497L143.85 3.25497C143.85 3.25497 143.376 3.60897 143.127 3.50397C142.878 3.39897 143.041 3.06097 143.041 3.06097C143.041 3.06097 143.197 2.79697 143.407 2.72297L143.261 2.67497L143.216 2.68497C143.216 2.68497 142.833 2.71197 142.824 2.71597C142.814 2.71997 142.498 2.79397 142.498 2.79397C142.498 2.79397 142.242 2.82497 142.004 3.06197C141.767 3.29897 141.581 3.73797 141.456 4.06397C141.332 4.39097 140.896 5.17897 140.434 5.36597C139.971 5.55297 139.774 5.30397 139.774 5.30397C139.774 5.30397 139.724 5.23797 139.672 5.09797C139.622 4.95797 139.475 4.75197 139.296 4.74397C139.117 4.73597 138.62 4.65097 138.262 5.18697L137.842 5.71097C137.842 5.71097 138.523 5.70697 138.985 6.56997C138.985 6.56997 139.338 7.86797 139.4 8.01897C139.462 8.17097 139.571 8.61297 139.987 8.96697C140.402 9.32097 141.367 9.48797 142.066 9.34797C142.766 9.20897 143.45 8.88997 144.671 7.96497Z" fill="url(#paint7_linear_80_7908)"/>
<path d="M152.865 14.582C152.865 14.582 152.184 15.05 151.673 14.743C151.162 14.437 150.378 13.534 148.624 13.21C148.624 13.21 148.105 13.109 148.088 12.852C148.059 12.45 148.616 12.145 149.067 12.069C149.518 11.992 150.123 12.129 150.302 12.18C150.48 12.231 151.783 12.691 151.851 11.916C151.92 11.141 151.648 10.026 149.127 8.84199C146.607 7.65799 144.426 7.16399 144.426 7.16399C144.426 7.16399 143.804 7.02799 144.025 6.62799C144.247 6.22799 145.67 6.43299 148.582 7.35199L150.243 7.97399C150.243 7.97399 150.473 8.10199 150.558 7.92299C150.643 7.74399 150.354 7.53999 150.158 7.41199C149.962 7.28399 149.17 6.90099 148.08 6.51699C146.989 6.13399 144.417 5.47899 144.417 5.47899C144.417 5.47899 143.769 5.33399 143.889 5.11199C144.007 4.89099 144.247 4.66099 146.197 5.06899C148.147 5.47799 149.11 5.83599 150.727 6.60999C150.727 6.60999 150.826 6.65099 150.863 6.58899C150.9 6.52699 150.848 6.44399 150.786 6.40199C150.723 6.36099 149.127 5.29299 147.708 4.85799C146.288 4.42299 145.946 4.33499 145.946 4.33499C145.946 4.33499 145.407 4.19499 145.464 3.93099C145.521 3.66699 146.521 3.87899 146.521 3.87899C146.521 3.87899 147.505 4.00899 149.49 4.91499C149.49 4.91499 150.365 5.35499 150.765 5.69199C150.765 5.69199 150.881 5.73599 150.791 5.62699C150.791 5.62699 149.848 4.88399 149.454 4.62999C149.06 4.37599 148.366 3.85799 147.459 3.69199C147.459 3.69199 147.127 3.59399 147.272 3.51599C147.417 3.43799 147.547 3.43799 147.547 3.43799C147.547 3.43799 147.666 3.44399 147.915 3.49999C148.164 3.55699 149.537 4.14299 150.495 4.92999C151.454 5.71699 152.086 6.78999 152.448 7.40699C152.64 7.73299 152.904 8.27099 153.081 8.84299C153.239 9.35199 153.317 9.88499 153.371 10.366C153.485 11.387 153.493 12.915 153.127 13.933C153.127 13.935 152.999 14.397 152.865 14.582Z" fill="url(#paint8_linear_80_7908)"/>
<path fill-rule="evenodd" clip-rule="evenodd" d="M144.731 3.71095C144.731 3.71095 145.047 3.97595 145.394 3.87195C145.741 3.76795 145.555 3.39995 145.476 3.31195C145.399 3.22395 144.834 2.54995 143.637 2.62295C143.637 2.62295 143.243 2.64095 142.855 2.71395C142.855 2.71395 143.538 2.60695 144.051 3.04795C144.565 3.48795 144.731 3.71095 144.731 3.71095Z" fill="url(#paint9_linear_80_7908)"/>
<path fill-rule="evenodd" clip-rule="evenodd" d="M145.572 2.65283C146.047 2.66883 146.66 2.84883 146.66 2.84883C147.386 3.00983 147.65 3.47083 147.806 3.66183C147.961 3.85383 148.096 4.28283 147.738 4.31483C147.381 4.34583 147.111 3.85883 147.111 3.85883L146.982 3.64083C146.491 2.81083 145.819 2.67583 145.578 2.65483L145.572 2.65283Z" fill="url(#paint10_linear_80_7908)"/>
<path fill-rule="evenodd" clip-rule="evenodd" d="M148.823 4.28382C148.823 4.28382 149.013 4.71882 149.282 4.71682C149.551 4.71382 149.424 4.41082 149.303 4.20082C149.181 3.99082 148.987 3.81182 148.759 3.67482C148.531 3.53782 148.07 3.32482 148.07 3.32482L147.932 3.26782C147.932 3.26782 148.267 3.43882 148.448 3.69482C148.63 3.95182 148.823 4.28382 148.823 4.28382Z" fill="url(#paint11_linear_80_7908)"/>
<path fill-rule="evenodd" clip-rule="evenodd" d="M136.04 14.6929C136.04 14.6929 136.379 15.8569 137.487 17.2149C138.594 18.5739 138.948 18.6109 138.948 18.6109C138.948 18.6109 139.058 18.7789 139.346 18.9939C139.585 19.1719 139.954 19.3739 140.416 19.6069C141.436 20.1219 142.029 20.1449 142.029 20.1449L141.959 19.5469L138.932 16.7469L137.356 15.8289L136.513 14.9579L136.04 14.6929Z" fill="url(#paint12_linear_80_7908)"/>
<path fill-rule="evenodd" clip-rule="evenodd" d="M136.624 12.8769L137.244 12.0169C137.244 12.0169 137.444 11.2769 137.864 11.5269C138.285 11.7779 138.515 12.6079 137.624 13.8879C137.624 13.8879 137.053 14.4879 137.324 15.0679C137.594 15.6479 137.804 16.0049 138.395 15.8439C138.986 15.6839 139.31 15.6179 139.955 15.2539L142.131 13.6739L143.457 12.6109C143.457 12.6109 143.893 12.2019 144.265 12.4969C144.639 12.7919 144.074 13.3159 143.924 13.4709C143.774 13.6269 142.001 15.3099 141.069 15.9639L140.623 16.3469C140.623 16.3469 140.426 16.5229 140.582 16.7709C140.582 16.7709 140.768 16.9469 141.038 16.7559C141.038 16.7559 143.339 15.2739 143.961 14.6569C144.583 14.0399 145.159 13.5639 145.159 13.5639C145.159 13.5639 145.563 13.1499 145.915 13.4239C146.268 13.6979 145.843 14.0969 145.791 14.1539C145.739 14.2109 144.552 15.4909 144.552 15.4909C144.552 15.4909 142.893 17.0139 142.696 17.1069C142.499 17.2009 142.302 17.9519 142.934 17.6199C143.567 17.2879 144.625 16.5009 144.884 16.2259C145.143 15.9519 146.153 14.9519 146.153 14.9519C146.153 14.9519 146.418 14.6199 146.754 14.8229C147.091 15.0249 146.66 15.5949 146.66 15.5949L145.66 16.7449L144.743 17.6209C144.743 17.6209 143.706 18.4609 143.255 18.7249C142.805 18.9889 143.421 19.1599 143.515 19.1539C143.608 19.1489 143.608 19.1489 143.608 19.1489C143.608 19.1489 143.784 19.1129 143.976 19.0149C144.168 18.9159 145.101 18.2839 145.101 18.2839L146.07 17.4439C146.07 17.4439 146.411 16.9419 146.784 17.0969C147.157 17.2529 146.826 17.7139 146.722 17.8539C146.618 17.9939 146.095 18.5849 146.095 18.5849L144.047 19.8959C144.047 19.8959 143.502 20.3679 142.49 20.2489C141.48 20.1299 140.709 19.3049 140.709 19.3049L139.165 17.5799C139.165 17.5799 138.513 16.9479 138.216 16.7969C137.921 16.6469 137.201 16.2169 136.771 15.7559C136.34 15.2939 136.076 14.8019 136.076 14.8019C136.076 14.8019 135.827 14.2219 135.988 13.9059C136.152 13.5899 136.624 12.8769 136.624 12.8769Z" fill="url(#paint13_linear_80_7908)"/>
<path fill-rule="evenodd" clip-rule="evenodd" d="M139.744 3.92383C139.744 3.92383 139.397 4.10983 138.786 4.58783C138.176 5.06583 137.484 5.85883 137.181 6.28683C136.878 6.71383 135.77 8.10483 135.506 10.8568C135.506 10.8568 135.405 11.8198 135.561 12.6368C135.561 12.6368 135.656 13.6308 136.097 14.0288C136.097 14.0288 137.791 15.3038 139.914 15.6608C139.914 15.6608 140.344 15.6998 140.38 15.3158C140.417 14.9318 139.815 14.6938 139.815 14.6938C139.815 14.6938 138.411 14.2018 138.271 14.0828C138.131 13.9638 137.935 13.9838 137.214 13.3938C136.493 12.8038 136.463 12.3788 136.593 12.1868C136.722 11.9948 136.951 12.1038 137.173 12.1918C137.395 12.2798 138.468 12.6898 138.468 12.6898L141.437 13.5238C141.437 13.5238 142.645 13.9338 142.836 13.4148C143.028 12.8968 142.484 12.6798 142.276 12.6018C142.069 12.5238 139.851 11.7988 138.562 11.2538C137.271 10.7098 137.154 10.7098 137.233 10.1658C137.233 10.1658 137.295 9.81583 138.204 10.0028C139.181 10.2028 141.165 10.5938 141.165 10.5938L143.909 11.1608C143.909 11.1608 144.656 11.3398 144.772 10.9038C144.889 10.4688 144.422 10.2128 144.095 10.0958C143.768 9.97883 140.839 9.14783 140.839 9.14783L139.067 8.68983C139.067 8.68983 137.458 8.50383 137.971 7.81983C137.971 7.81983 138.126 7.58683 139.308 7.68783C140.489 7.78883 142.588 8.19383 143.233 8.37983C143.878 8.56683 144.625 8.69083 144.75 8.22383C144.874 7.75783 144.414 7.54783 143.723 7.33783C143.032 7.12783 141.632 6.77783 140.373 6.64583C139.114 6.51383 138.352 6.49883 138.352 6.49883C138.352 6.49883 137.792 6.49683 137.767 6.34783C137.767 6.34783 137.707 6.15583 137.886 5.79883C138.065 5.44083 138.524 4.96083 138.735 4.78783L139.744 3.92383Z" fill="url(#paint14_radial_80_7908)"/>
<path fill-rule="evenodd" clip-rule="evenodd" d="M144.12 19.8529L145.256 19.0719L146.151 18.5329C146.151 18.5329 146.931 18.0289 147.711 17.9019C148.492 17.7749 148.583 17.6609 148.583 17.6609C148.583 17.6609 150.166 17.2709 150.327 17.1329C150.488 16.9949 150.935 16.8919 150.935 16.8919C150.935 16.8919 151.624 16.6799 152.122 15.6039L152.483 14.8999C152.483 14.8999 152.553 15.3169 152.444 15.6269C152.336 15.9379 152.103 16.3189 152.103 16.3189C152.103 16.3189 151.978 16.5559 151.959 16.5989C151.939 16.6419 151.68 16.9339 151.68 16.9339C151.68 16.9339 151.241 17.5869 150.588 17.7539C149.935 17.9209 147.88 20.4129 145.124 20.3509C142.365 20.2889 144.12 19.8529 144.12 19.8529Z" fill="#0077B4"/>
<path fill-rule="evenodd" clip-rule="evenodd" d="M141.846 17.0409C141.846 17.0409 141.816 16.5439 142.162 16.4449C142.51 16.3469 142.691 16.6049 142.774 16.9219C142.856 17.2379 143.141 18.1239 143.141 18.1239C143.141 18.1239 143.535 19.2999 144.178 19.7399C144.821 20.1809 145.128 19.8649 145.061 19.4599C144.993 19.0609 144.537 17.0559 144.537 17.0559L144.117 14.7809C144.117 14.7809 143.848 13.8539 144.454 13.6829C144.454 13.6829 144.905 13.5019 145.118 14.1649L145.522 15.5429L146.014 17.2059L146.289 18.1599C146.289 18.1599 146.481 19.2689 146.953 19.1959C147.424 19.1229 147.31 18.4139 147.305 17.9989C147.3 17.5839 147.087 15.5069 147.087 15.5069L146.854 13.9469L146.662 12.6099C146.662 12.6099 146.486 11.9619 147.051 11.8639C147.616 11.7659 147.813 12.6059 147.813 12.6059L148.249 14.4809L148.575 16.2639C148.575 16.2639 148.736 17.4769 148.736 17.6259C148.736 17.7769 148.824 18.5229 149.13 18.5069C149.435 18.4919 149.674 17.8809 149.674 17.8809C149.674 17.8809 149.886 17.0979 149.88 16.5959C149.876 16.0929 149.95 15.2559 149.81 13.9669C149.67 12.6769 149.352 12.4409 149.823 12.2799C150.295 12.1189 150.513 12.7879 150.513 12.7879C150.513 12.7879 150.875 13.7409 150.99 14.5699C151.103 15.3989 151.088 16.5749 151.036 16.8549C150.985 17.1349 150.922 18.0979 149.616 18.9329C148.31 19.7669 147.336 20.1499 146.667 20.2849C146 20.4199 144.377 20.7149 143.091 20.4509C143.091 20.4509 142.962 20.4059 142.92 20.3269C142.834 20.1659 141.825 18.0409 141.846 17.0409Z" fill="url(#paint15_linear_80_7908)"/>
<path fill-rule="evenodd" clip-rule="evenodd" d="M153.134 13.9229C152.455 14.1359 152.373 14.6689 152.412 15.2399C152.437 15.6239 152.291 15.9699 152.195 16.1569C152.3 15.9779 152.487 15.6539 152.672 15.2439C152.937 14.6569 153.134 13.9229 153.134 13.9229Z" fill="url(#paint16_linear_80_7908)"/>
<path fill-rule="evenodd" clip-rule="evenodd" d="M152.195 16.1569L152.202 16.1519L152.195 16.1569Z" fill="url(#paint17_linear_80_7908)"/>
<path d="M143.397 6.1338C142.275 7.6898 142.923 10.6668 142.923 10.6668C144.176 17.3248 146.315 20.3508 146.315 20.3508C146.603 20.4818 146.702 20.2758 146.702 20.2758C146.56 20.2948 146.497 20.2318 146.497 20.2318C146.497 20.2318 144.432 17.4368 143.18 10.7788C143.18 10.7788 142.546 7.8138 143.647 6.2518L143.659 6.2578C144.695 6.8748 145.924 7.7408 147.376 8.9518C147.376 8.9518 149.392 10.7038 150.19 11.9058C150.19 11.9058 152.573 14.6938 151.941 16.5078C151.941 16.5078 151.957 16.5538 151.5 17.1548C151.5 17.1548 152.055 16.7618 152.148 16.2588C152.242 15.7568 152.283 15.3528 151.873 14.2428C151.464 13.1338 149.765 10.7038 148.023 9.1498C146.665 7.9378 145.453 6.9468 143.829 6.0478L143.831 6.0458C144.251 5.5718 144.959 5.4088 145.433 5.2928C145.907 5.1758 148.013 4.8888 150.228 5.9458C152.443 7.0028 152.847 8.3628 152.994 8.7128C153.142 9.0618 153.262 9.6038 153.262 9.6038C153.251 9.2038 153.049 8.6108 153.049 8.6108C152.897 8.2498 152.481 6.8498 150.199 5.7608C147.918 4.6718 145.748 4.9688 145.261 5.0878C144.772 5.2078 144.043 5.3768 143.611 5.8648C143.598 5.8788 143.586 5.8938 143.574 5.9088C143.324 5.7758 143.064 5.6438 142.792 5.5138C144.248 3.9568 145.422 3.3778 146.407 3.1198C146.407 3.1198 147.225 2.9068 147.915 3.2488C147.915 3.2488 148.226 3.3938 148.233 3.3938C148.242 3.3938 147.855 3.0648 147.324 2.9738C146.793 2.8828 146.324 2.9788 146.231 2.9998C146.15 3.0178 144.432 3.4098 142.539 5.3948C142.474 5.3648 142.41 5.3348 142.345 5.3058C142.143 5.2148 141.946 5.1348 141.755 5.0638C141.984 4.8128 142.219 4.4448 142.35 4.2458C142.482 4.0458 142.679 3.5568 142.733 3.1008C142.787 2.6448 142.824 2.7118 142.824 2.7118L142.828 2.7158L142.858 2.7118L142.856 2.7068C142.844 2.6428 142.751 2.6478 142.751 2.6478C142.627 2.6608 142.638 2.6808 142.627 2.6848C142.615 2.6888 142.487 3.2558 142.487 3.2558C142.276 4.1308 141.764 4.6898 141.498 4.9718C139.504 4.3018 138.102 4.6888 137.869 5.4638C137.869 5.4638 138.266 4.9318 138.798 4.8538C139.079 4.8128 139.839 4.6098 141.349 5.1408C141.344 5.1478 141.34 5.1548 141.337 5.1608C141.274 5.3008 139.759 6.4198 139.759 6.4198L138.181 7.5698C138.181 7.5698 137.147 8.3838 136.494 9.0778C135.841 9.7718 135.52 10.7538 135.52 10.7538C135.52 10.7538 135.383 11.3398 135.385 11.7458C135.388 12.1528 135.538 12.4888 135.538 12.4888L135.535 12.4558C135.079 10.3518 137.095 8.7328 137.095 8.7328C137.281 8.5488 137.94 7.9998 137.94 7.9998L138.968 7.2458L139.877 6.6078C139.877 6.6078 140.623 6.0688 140.953 5.8148C141.161 5.6538 141.425 5.3968 141.591 5.2288C141.835 5.3228 142.096 5.4338 142.376 5.5668C142.149 5.8148 141.919 6.0848 141.691 6.3818C139.494 9.2318 138.768 11.6868 138.768 11.6868C138.768 11.6868 137.302 15.2368 138.439 18.0208C138.439 18.0208 138.766 18.8368 139.651 19.1918L139.308 18.9688L138.979 18.6558L138.63 18.1498L138.537 17.9058L138.416 17.4598C138.126 16.0818 138.229 15.4798 138.229 15.4798C138.229 15.4798 138.244 14.6198 138.603 13.1788C138.752 12.5778 139.401 9.8628 141.484 7.0858C141.884 6.5528 142.264 6.0918 142.628 5.6898C142.876 5.8138 143.137 5.9538 143.412 6.1128C143.406 6.1208 143.402 6.1278 143.397 6.1338Z" fill="url(#paint18_radial_80_7908)"/>
<path d="M146.718 20.279C146.575 20.297 146.514 20.233 146.514 20.233C146.514 20.233 144.449 17.439 143.196 10.781C143.196 10.781 142.562 7.81598 143.658 6.25898L143.615 6.22998C142.519 7.78598 143.153 10.752 143.153 10.752C144.405 17.41 146.469 20.206 146.469 20.206L146.498 20.245C146.498 20.245 146.553 20.313 146.718 20.279Z" fill="#939598"/>
<path d="M148.226 3.40095C148.218 3.40095 147.907 3.25595 147.907 3.25595C147.217 2.91395 146.399 3.12695 146.399 3.12695C145.416 3.38495 144.246 3.96095 142.792 5.51395C142.774 5.50495 142.755 5.49595 142.736 5.48595C144.191 3.92995 145.363 3.35295 146.348 3.09395C146.348 3.09395 147.168 2.87995 147.858 3.22195C147.801 3.19495 148.201 3.37495 148.19 3.37495L148.232 3.39395L148.226 3.40095Z" fill="#939598"/>
<path d="M150.228 5.94496C150.513 6.07996 150.788 6.22796 151.101 6.43196C150.835 6.25396 150.522 6.08696 150.17 5.91996C147.956 4.86196 145.85 5.14996 145.375 5.26696C144.901 5.38296 144.201 5.53796 143.781 6.01296C143.781 6.01196 143.781 6.01396 143.781 6.01296C143.799 6.02296 143.814 6.03896 143.832 6.04896C144.252 5.57596 144.952 5.41696 145.426 5.30096C145.9 5.18296 148.014 4.88796 150.228 5.94496Z" fill="#939598"/>
<path d="M142.817 2.7168C142.775 2.7328 142.73 3.1128 142.73 3.1128C142.676 3.5688 142.474 4.0528 142.342 4.2528C142.212 4.4488 141.98 4.8118 141.754 5.0628C141.734 5.0548 141.714 5.0478 141.694 5.0398C141.923 4.7888 142.16 4.4188 142.292 4.2198C142.424 4.0208 142.619 3.5308 142.669 3.0768L142.717 2.7718C142.717 2.7718 142.728 2.6358 142.841 2.7108L142.817 2.7168Z" fill="#939598"/>
<path d="M138.032 5.24996C138.192 5.09096 138.395 4.89396 138.738 4.82796C139.017 4.77396 139.841 4.60696 141.351 5.13696C141.348 5.14196 141.344 5.14396 141.342 5.14796C139.872 4.64296 139.066 4.81996 138.789 4.86096C138.789 4.86096 138.358 4.90396 137.884 5.44096C137.884 5.44096 137.976 5.30496 138.032 5.24996Z" fill="#939598"/>
<path d="M142.638 5.69891C142.274 6.09991 141.894 6.56191 141.494 7.09391C139.411 9.87191 138.763 12.5859 138.613 13.1879C138.255 14.6279 138.24 15.4879 138.24 15.4879C138.24 15.4879 138.136 16.0889 138.426 17.4669C138.614 18.3589 139.134 18.8429 139.477 19.0729C139.137 18.8579 138.573 18.3709 138.375 17.4339C138.086 16.0549 138.189 15.4539 138.189 15.4539C138.189 15.4539 138.204 14.5929 138.562 13.1529C138.712 12.5519 139.36 9.83691 141.444 7.05891C141.843 6.52591 142.227 6.06191 142.591 5.65991C142.838 5.78391 143.154 5.95291 143.415 6.10391L143.41 6.11291L142.637 5.69691" fill="#939598"/>
<path d="M135.439 12.1789C135.222 10.1649 137.041 8.70688 137.041 8.70688C137.227 8.52288 137.886 7.97388 137.886 7.97388L138.914 7.21988L139.823 6.58188C139.823 6.58188 140.57 6.04288 140.899 5.78888C141.107 5.62788 141.371 5.37088 141.537 5.20288C141.781 5.29688 142.096 5.43288 142.376 5.56588C142.373 5.56888 142.372 5.57088 142.37 5.57288C142.112 5.45188 141.815 5.32288 141.588 5.23588C141.422 5.40288 141.158 5.66088 140.949 5.82088C140.62 6.07588 139.873 6.61388 139.873 6.61388L138.964 7.25088L137.936 8.00488C137.936 8.00488 137.278 8.55388 137.091 8.73788C137.091 8.73788 135.168 10.2259 135.526 12.4179C135.526 12.4199 135.449 12.2469 135.439 12.1789Z" fill="#939598"/>
<path d="M155 23.1589H133.881V44.2779H155V23.1589Z" fill="#00121E"/>
<path d="M136.209 39.355H136.448L136.78 40.883H136.785L137.14 39.355H137.43L137.75 40.883H137.755L138.114 39.355H138.348L137.882 41.118H137.608L137.274 39.59H137.268L136.912 41.118H136.639L136.209 39.355Z" fill="white"/>
<path d="M138.516 40.5661C138.516 40.9101 138.609 40.9791 138.764 40.9791C138.901 40.9791 138.973 40.8691 138.979 40.7451H139.2C139.198 41.0181 139.028 41.1421 138.771 41.1421C138.509 41.1421 138.302 41.0631 138.302 40.5201C138.302 40.1591 138.343 39.8611 138.771 39.8611C139.122 39.8611 139.21 40.0541 139.21 40.4621V40.5671L138.516 40.5661ZM138.997 40.4141C138.997 40.0551 138.897 40.0121 138.75 40.0121C138.624 40.0121 138.519 40.0731 138.516 40.4141H138.997Z" fill="white"/>
<path d="M140.357 39.355H140.643L141.217 41.118H140.965L140.838 40.698H140.157L140.026 41.118H139.799L140.357 39.355ZM140.494 39.563H140.489L140.213 40.502H140.777L140.494 39.563Z" fill="white"/>
<path d="M141.587 40.0699H141.592C141.675 39.8809 141.778 39.8599 141.973 39.8599V40.0679C141.956 40.0659 141.936 40.0629 141.919 40.0599C141.902 40.0579 141.885 40.0549 141.866 40.0549C141.643 40.0549 141.587 40.2239 141.587 40.3899V41.1169H141.386V39.8839H141.587V40.0699Z" fill="white"/>
<path d="M142.242 40.5661C142.242 40.9101 142.334 40.9791 142.49 40.9791C142.627 40.9791 142.698 40.8691 142.705 40.7451H142.924C142.921 41.0181 142.753 41.1421 142.494 41.1421C142.233 41.1421 142.025 41.0631 142.025 40.5201C142.025 40.1591 142.067 39.8611 142.494 39.8611C142.846 39.8611 142.933 40.0541 142.933 40.4621V40.5671L142.242 40.5661ZM142.722 40.4141C142.722 40.0551 142.622 40.0121 142.476 40.0121C142.35 40.0121 142.244 40.0731 142.242 40.4141H142.722Z" fill="white"/>
<path d="M143.608 41.118V39.355H144.182C144.426 39.355 144.509 39.438 144.575 39.535C144.636 39.63 144.646 39.736 144.646 39.77C144.646 39.989 144.57 40.136 144.342 40.187V40.2C144.594 40.23 144.704 40.381 144.704 40.623C144.704 41.074 144.375 41.118 144.174 41.118H143.608ZM143.833 40.097H144.16C144.335 40.095 144.421 39.987 144.421 39.817C144.421 39.67 144.338 39.55 144.15 39.55H143.833V40.097ZM143.833 40.922H144.15C144.389 40.922 144.475 40.752 144.475 40.622C144.475 40.341 144.301 40.292 144.072 40.292H143.832L143.833 40.922Z" fill="white"/>
<path d="M145.544 40.9401H145.539C145.478 41.0811 145.383 41.1431 145.229 41.1431C144.969 41.1431 144.893 40.9741 144.893 40.7381C144.893 40.3641 145.259 40.3471 145.539 40.3551C145.544 40.1901 145.546 40.0131 145.332 40.0131C145.198 40.0131 145.126 40.1031 145.138 40.2331H144.921C144.931 39.9571 145.077 39.8611 145.338 39.8611C145.656 39.8611 145.739 40.0241 145.739 40.2331V40.8251C145.739 40.9231 145.748 41.0241 145.764 41.1191H145.544V40.9401ZM145.092 40.7521C145.092 40.8711 145.151 40.9791 145.285 40.9791C145.407 40.9791 145.559 40.9031 145.539 40.5051C145.349 40.5081 145.092 40.4901 145.092 40.7521Z" fill="white"/>
<path d="M146.348 41.1419C146.081 41.1419 145.916 41.0259 145.923 40.7409H146.15C146.15 40.8109 146.152 40.9779 146.355 40.9779C146.474 40.9779 146.567 40.9159 146.567 40.7899C146.567 40.5709 145.952 40.5649 145.952 40.1969C145.952 40.0679 146.03 39.8599 146.377 39.8599C146.596 39.8599 146.784 39.9649 146.767 40.2089H146.546C146.548 40.0789 146.479 40.0109 146.353 40.0109C146.246 40.0109 146.163 40.0689 146.163 40.1769C146.163 40.3939 146.778 40.3889 146.778 40.7649C146.777 41.0369 146.592 41.1419 146.348 41.1419Z" fill="white"/>
<path d="M147.17 41.118H146.97V39.355H147.17V40.417H147.175L147.551 39.884H147.795L147.385 40.413L147.869 41.117H147.614L147.175 40.426H147.17V41.118Z" fill="white"/>
<path d="M148.103 40.5659C148.103 40.9099 148.195 40.9789 148.352 40.9789C148.488 40.9789 148.559 40.8689 148.566 40.7439H148.786C148.783 41.0169 148.614 41.1419 148.356 41.1419C148.095 41.1419 147.887 41.0629 147.887 40.5189C147.887 40.1579 147.929 39.8599 148.356 39.8599C148.707 39.8599 148.795 40.0519 148.795 40.4609V40.5659H148.103ZM148.584 40.4139C148.584 40.0549 148.483 40.0119 148.337 40.0119C148.21 40.0119 148.105 40.0719 148.103 40.4139H148.584Z" fill="white"/>
<path d="M149.053 39.8849V39.6479L149.253 39.5569V39.8849H149.522V40.0359H149.253V40.7899C149.253 40.8679 149.253 40.9679 149.436 40.9679C149.451 40.9679 149.482 40.9629 149.527 40.9579V41.1119C149.461 41.1169 149.395 41.1319 149.329 41.1319C149.138 41.1319 149.053 41.0549 149.053 40.9129V40.0359H148.851V39.8849H149.053Z" fill="white"/>
<path d="M149.927 41.118H149.727V39.355H149.927V40.009H149.934C150.003 39.911 150.088 39.86 150.205 39.86C150.603 39.86 150.613 40.214 150.613 40.522C150.613 41.063 150.413 41.142 150.215 41.142C150.085 41.142 150 41.086 149.932 40.971H149.928L149.927 41.118ZM150.152 40.979C150.403 40.979 150.403 40.71 150.403 40.524C150.403 40.195 150.374 40.023 150.159 40.023C149.937 40.023 149.928 40.287 149.928 40.451C149.927 40.639 149.905 40.979 150.152 40.979Z" fill="white"/>
<path d="M151.418 40.9401H151.413C151.352 41.0811 151.257 41.1431 151.103 41.1431C150.842 41.1431 150.767 40.9741 150.767 40.7381C150.767 40.3641 151.133 40.3471 151.413 40.3551C151.418 40.1901 151.42 40.0131 151.206 40.0131C151.072 40.0131 151.001 40.1031 151.014 40.2331H150.796C150.806 39.9571 150.953 39.8611 151.214 39.8611C151.532 39.8611 151.615 40.0241 151.615 40.2331V40.8251C151.615 40.9231 151.625 41.0241 151.639 41.1191H151.42V40.9401H151.418ZM150.966 40.7521C150.966 40.8711 151.025 40.9791 151.16 40.9791C151.281 40.9791 151.433 40.9031 151.413 40.5051C151.223 40.5081 150.966 40.4901 150.966 40.7521Z" fill="white"/>
<path d="M152.102 41.118H151.901V39.355H152.102V41.118Z" fill="white"/>
<path d="M152.595 41.118H152.395V39.355H152.595V41.118Z" fill="white"/>
<path d="M138.801 27.5631V28.8931H140.601V30.0731H138.801V32.6801H137.542V26.7841C137.542 26.4651 137.666 26.3411 137.986 26.3411H140.966V27.5641L138.801 27.5631Z" fill="white"/>
<path d="M141.39 32.6791V26.7831C141.39 26.4641 141.514 26.3401 141.833 26.3401H142.648V32.6801L141.39 32.6791Z" fill="white"/>
<path d="M145.806 28.1831C145.806 28.6971 145.505 28.9541 145.07 28.9541H144.52V27.4121H145.07C145.505 27.4121 145.806 27.6691 145.806 28.1831ZM147.091 30.8701C147.091 30.0101 146.63 29.6021 146.293 29.4871C146.595 29.3451 147.047 28.9901 147.047 28.0151C147.047 27.1281 146.444 26.3401 145.158 26.3401H143.731C143.412 26.3401 143.288 26.4641 143.288 26.7831V32.6791H145.212C146.293 32.6791 147.091 32.0761 147.091 30.8701ZM145.823 30.7991C145.823 31.3311 145.514 31.5881 145.078 31.5881H144.519V30.0101H145.078C145.514 30.0101 145.823 30.2661 145.823 30.7991Z" fill="white"/>
<path d="M150.061 29.362H148.891V28.059C148.891 27.793 148.98 27.341 149.476 27.341C149.973 27.341 150.061 27.793 150.061 28.059V29.362ZM151.321 32.679V27.917C151.321 27.43 151.054 26.197 149.476 26.197C147.898 26.197 147.632 27.429 147.632 27.917V32.679H148.891V30.542H150.061V32.679H151.321Z" fill="white"/>
</g>
<defs>
<radialGradient id="paint0_radial_80_7908" cx="0" cy="0" r="1" gradientUnits="userSpaceOnUse" gradientTransform="translate(144.859 14.7195) scale(7.74001 7.74)">
<stop stop-color="#828282"/>
<stop offset="1" stop-color="#545454"/>
</radialGradient>
<radialGradient id="paint1_radial_80_7908" cx="0" cy="0" r="1" gradientUnits="userSpaceOnUse" gradientTransform="translate(144.86 14.7194) scale(7.7413 7.7413)">
<stop stop-color="#828282"/>
<stop offset="1" stop-color="#545454"/>
</radialGradient>
<radialGradient id="paint2_radial_80_7908" cx="0" cy="0" r="1" gradientUnits="userSpaceOnUse" gradientTransform="translate(144.86 14.6688) scale(8.0116 8.0116)">
<stop stop-color="#828282"/>
<stop offset="1" stop-color="#545454"/>
</radialGradient>
<radialGradient id="paint3_radial_80_7908" cx="0" cy="0" r="1" gradientUnits="userSpaceOnUse" gradientTransform="translate(144.81 14.6733) scale(7.73999 7.74)">
<stop stop-color="#C2C2C2"/>
<stop offset="1" stop-color="#828282"/>
</radialGradient>
<radialGradient id="paint4_radial_80_7908" cx="0" cy="0" r="1" gradientUnits="userSpaceOnUse" gradientTransform="translate(144.811 14.6727) scale(7.7414 7.7414)">
<stop stop-color="#C2C2C2"/>
<stop offset="1" stop-color="#828282"/>
</radialGradient>
<radialGradient id="paint5_radial_80_7908" cx="0" cy="0" r="1" gradientUnits="userSpaceOnUse" gradientTransform="translate(144.811 14.6231) scale(8.0083 8.00829)">
<stop stop-color="#C2C2C2"/>
<stop offset="1" stop-color="#828282"/>
</radialGradient>
<linearGradient id="paint6_linear_80_7908" x1="139.539" y1="3.90147" x2="142.568" y2="3.52677" gradientUnits="userSpaceOnUse">
<stop stop-color="#00AA72"/>
<stop offset="1" stop-color="#00A651"/>
</linearGradient>
<linearGradient id="paint7_linear_80_7908" x1="144.857" y1="9.50987" x2="143.053" y2="1.23847" gradientUnits="userSpaceOnUse">
<stop stop-color="#FDB913"/>
<stop offset="0.2361" stop-color="#F9B613"/>
<stop offset="0.4461" stop-color="#EFAF13"/>
<stop offset="0.4944" stop-color="#EBAC13"/>
<stop offset="1" stop-color="#7B5A00"/>
</linearGradient>
<linearGradient id="paint8_linear_80_7908" x1="143.874" y1="9.14349" x2="153.44" y2="9.14349" gradientUnits="userSpaceOnUse">
<stop stop-color="#F47F7A"/>
<stop offset="0.1094" stop-color="#F25C5B"/>
<stop offset="0.2204" stop-color="#F04043"/>
<stop offset="0.3322" stop-color="#EE2C32"/>
<stop offset="0.444" stop-color="#ED2027"/>
<stop offset="0.5562" stop-color="#ED1C24"/>
<stop offset="1" stop-color="#AD1015"/>
</linearGradient>
<linearGradient id="paint9_linear_80_7908" x1="146.062" y1="4.66805" x2="143.556" y2="2.46595" gradientUnits="userSpaceOnUse">
<stop offset="0.2697" stop-color="#FFCF01"/>
<stop offset="0.5223" stop-color="#FDCD01"/>
<stop offset="0.6414" stop-color="#F5C601"/>
<stop offset="0.7325" stop-color="#E8BB01"/>
<stop offset="0.8094" stop-color="#D6AB01"/>
<stop offset="0.8774" stop-color="#BE9601"/>
<stop offset="0.9387" stop-color="#A17C00"/>
<stop offset="0.9943" stop-color="#7F5D00"/>
<stop offset="1" stop-color="#7B5A00"/>
</linearGradient>
<linearGradient id="paint10_linear_80_7908" x1="148.694" y1="4.86773" x2="146.115" y2="2.60093" gradientUnits="userSpaceOnUse">
<stop offset="0.2697" stop-color="#FFCF01"/>
<stop offset="0.5223" stop-color="#FDCD01"/>
<stop offset="0.6414" stop-color="#F5C601"/>
<stop offset="0.7325" stop-color="#E8BB01"/>
<stop offset="0.8094" stop-color="#D6AB01"/>
<stop offset="0.8774" stop-color="#BE9601"/>
<stop offset="0.9387" stop-color="#A17C00"/>
<stop offset="0.9943" stop-color="#7F5D00"/>
<stop offset="1" stop-color="#7B5A00"/>
</linearGradient>
<linearGradient id="paint11_linear_80_7908" x1="150.009" y1="5.09382" x2="148.136" y2="3.44744" gradientUnits="userSpaceOnUse">
<stop offset="0.2697" stop-color="#FFCF01"/>
<stop offset="0.5223" stop-color="#FDCD01"/>
<stop offset="0.6414" stop-color="#F5C601"/>
<stop offset="0.7325" stop-color="#E8BB01"/>
<stop offset="0.8094" stop-color="#D6AB01"/>
<stop offset="0.8774" stop-color="#BE9601"/>
<stop offset="0.9387" stop-color="#A17C00"/>
<stop offset="0.9943" stop-color="#7F5D00"/>
<stop offset="1" stop-color="#7B5A00"/>
</linearGradient>
<linearGradient id="paint12_linear_80_7908" x1="139.704" y1="16.6863" x2="135.748" y2="21.0186" gradientUnits="userSpaceOnUse">
<stop stop-color="#58595B"/>
<stop offset="0.2834" stop-color="#88898B"/>
<stop offset="0.6111" stop-color="#BABBBC"/>
<stop offset="0.8605" stop-color="#D8D9DB"/>
<stop offset="1" stop-color="#E4E5E6"/>
</linearGradient>
<linearGradient id="paint13_linear_80_7908" x1="137.062" y1="17.9523" x2="150.289" y2="10.0285" gradientUnits="userSpaceOnUse">
<stop stop-color="#363436"/>
<stop offset="0.0734" stop-color="#464446"/>
<stop offset="0.4018" stop-color="#89898A"/>
<stop offset="0.6766" stop-color="#BABBBC"/>
<stop offset="0.884" stop-color="#D9D9DB"/>
<stop offset="1" stop-color="#E4E5E6"/>
</linearGradient>
<radialGradient id="paint14_radial_80_7908" cx="0" cy="0" r="1" gradientUnits="userSpaceOnUse" gradientTransform="translate(141.838 6.90623) scale(7.7134 7.7134)">
<stop stop-color="#9BCFB3"/>
<stop offset="1" stop-color="#00A651"/>
</radialGradient>
<linearGradient id="paint15_linear_80_7908" x1="147.678" y1="19.1636" x2="144.435" y2="10.682" gradientUnits="userSpaceOnUse">
<stop offset="0.0056" stop-color="#003965"/>
<stop offset="0.0843" stop-color="#004778"/>
<stop offset="0.5562" stop-color="#389CD2"/>
<stop offset="1" stop-color="#0089CF"/>
</linearGradient>
<linearGradient id="paint16_linear_80_7908" x1="152.195" y1="15.0398" x2="153.134" y2="15.0398" gradientUnits="userSpaceOnUse">
<stop stop-color="#00395D"/>
<stop offset="0.3853" stop-color="#005381"/>
<stop offset="0.7788" stop-color="#00699F"/>
<stop offset="1" stop-color="#0071AB"/>
</linearGradient>
<linearGradient id="paint17_linear_80_7908" x1="152.195" y1="16.1544" x2="152.202" y2="16.1544" gradientUnits="userSpaceOnUse">
<stop stop-color="#00395D"/>
<stop offset="0.3853" stop-color="#005381"/>
<stop offset="0.7788" stop-color="#00699F"/>
<stop offset="1" stop-color="#0071AB"/>
</linearGradient>
<radialGradient id="paint18_radial_80_7908" cx="0" cy="0" r="1" gradientUnits="userSpaceOnUse" gradientTransform="translate(141.916 6.0635) scale(7.4284)">
<stop stop-color="white"/>
<stop offset="0.4155" stop-color="#FCFCFC"/>
<stop offset="0.764" stop-color="#F1F1F1"/>
<stop offset="1" stop-color="#E6E6E6"/>
</radialGradient>
<clipPath id="clip0_80_7908">
<rect width="155" height="45" fill="white"/>
</clipPath>
</defs>
</svg>
