<svg width="210" height="26" viewBox="0 0 210 26" fill="none" xmlns="http://www.w3.org/2000/svg">
<path d="M14.408 25H10.952L6.308 14.776L4.616 10.96V25H0.512V1.024H4.364L8.792 11.428L10.376 15.244V1.024H14.408V25ZM28.9413 25H17.4933V1.024H28.9413V4.876H21.9573V10.816H26.7813V14.344H21.9573V21.004H28.9413V25ZM44.9169 25H40.2369L37.4289 16.72L34.3689 25H30.0129L34.9449 12.904L30.3009 1.024H34.9809L37.6089 9.304L40.4889 1.024H44.8809L40.0929 12.544L44.9169 25ZM58.8753 4.984H54.4833V25H49.9833V4.984H45.5553V1.024H58.8753V4.984ZM79.6462 25H77.1982L76.5862 23.092C75.7942 24.676 74.1382 25.54 72.1942 25.54C68.2342 25.54 66.0382 22.732 66.0382 19.276V6.748C66.0382 3.472 68.5582 0.52 72.8782 0.52C77.1982 0.52 79.5022 3.364 79.5022 6.748V9.232H75.2182V6.568C75.2182 5.416 74.4982 4.408 72.9142 4.408C71.3302 4.408 70.5742 5.452 70.5742 6.64V19.42C70.5742 20.608 71.4022 21.652 72.9502 21.652C74.5342 21.652 75.3262 20.608 75.3262 19.42V16.072H72.9862V12.832H79.6462V25ZM95.5326 25H90.9966L90.2046 20.284H85.9566L85.0926 25H80.9166L85.7406 1.024H90.7446L95.5326 25ZM89.6286 16.756L88.1886 7.504L86.5686 16.756H89.6286ZM115.696 25H111.484V7.612L110.512 12.832L107.956 25H104.572L102.16 12.832L101.224 7.612V25H97.2277V1.024H103.24L105.724 13.192L106.48 17.62L107.272 13.192L109.72 1.024H115.696V25ZM130.226 25H118.778V1.024H130.226V4.876H123.242V10.816H128.066V14.344H123.242V21.004H130.226V25ZM135.978 13.768H132.522V9.196H135.978V13.768ZM135.978 25H132.522V20.428H135.978V25Z" fill="white"/>
<path d="M157.654 25H153.118L152.326 20.284H148.078L147.214 25H143.038L147.862 1.024H152.866L157.654 25ZM151.75 16.756L150.31 7.504L148.69 16.756H151.75ZM172.634 19.456C172.634 23.056 169.898 25.54 166.01 25.54C162.122 25.54 159.242 23.056 159.242 19.456V1.024H163.778V19.456C163.778 20.86 164.57 21.652 166.01 21.652C167.486 21.652 168.278 20.86 168.278 19.456V1.024H172.634V19.456ZM189.052 25H186.604L185.992 23.092C185.2 24.676 183.544 25.54 181.6 25.54C177.64 25.54 175.444 22.732 175.444 19.276V6.748C175.444 3.472 177.964 0.52 182.284 0.52C186.604 0.52 188.908 3.364 188.908 6.748V9.232H184.624V6.568C184.624 5.416 183.904 4.408 182.32 4.408C180.736 4.408 179.98 5.452 179.98 6.64V19.42C179.98 20.608 180.808 21.652 182.356 21.652C183.94 21.652 184.732 20.608 184.732 19.42V16.072H182.392V12.832H189.052V25ZM209.018 1.024C208.802 3.688 208.154 4.804 206.246 4.804H201.242L200.846 10.816C201.674 9.664 203.042 8.944 204.914 8.944C207.434 8.944 209.054 10.78 209.054 13.408V19.636C209.054 23.2 206.642 25.54 202.718 25.54C198.83 25.54 196.886 22.696 196.886 19.852V17.836H200.594V19.384C200.594 20.86 201.386 21.832 202.79 21.832C204.23 21.832 204.986 21.004 204.986 19.492V14.092C204.986 12.904 204.23 12.148 203.186 12.148C201.89 12.148 201.062 13.048 200.774 14.056L197.174 13.516L197.858 1.024H209.018Z" fill="#FDB913"/>
</svg>
