<svg width="445" height="26" viewBox="0 0 445 26" fill="none" xmlns="http://www.w3.org/2000/svg">
<path d="M13.436 19.924C13.436 23.272 11.384 25 8.108 25H0.548V1.024H8.036C11.312 1.024 13.328 2.788 13.328 6.1V8.692C13.328 10.744 12.536 12.292 10.484 12.724C12.644 13.3 13.436 14.776 13.436 16.792V19.924ZM9.044 9.412V6.424C9.044 5.344 8.576 4.696 7.46 4.696H5.048V11.284H7.28C8.432 11.284 9.044 10.672 9.044 9.412ZM9.116 19.6V16.468C9.116 15.208 8.504 14.56 7.352 14.56H5.048V21.328H7.568C8.684 21.328 9.116 20.716 9.116 19.6ZM29.3334 25H24.7974L24.0054 20.284H19.7574L18.8934 25H14.7174L19.5414 1.024H24.5454L29.3334 25ZM23.4294 16.756L21.9894 7.504L20.3694 16.756H23.4294ZM43.5933 18.916C43.5933 22.768 40.9293 25.54 36.9693 25.54C32.8653 25.54 30.3093 23.092 30.3093 19.348V17.692H34.4133V19.096C34.4133 20.86 35.2413 21.832 36.8613 21.832C38.4453 21.832 39.2373 20.896 39.2373 19.42C39.2373 17.512 38.0133 16.216 35.6373 14.452C33.1893 12.688 30.5253 10.312 30.5253 6.964C30.5253 3.508 32.7573 0.52 37.0773 0.52C40.8573 0.52 43.3773 3.112 43.3773 6.676V8.224H39.3093V6.784C39.3093 5.308 38.5533 4.228 37.0413 4.228C35.7453 4.228 34.8813 5.056 34.8813 6.388C34.8813 8.404 36.0693 9.448 38.7333 11.392C41.5773 13.516 43.5933 15.676 43.5933 18.916ZM60.009 25H55.329L52.017 15.136L50.469 18.304V25H46.005V1.024H50.469V12.004L55.293 1.024H59.793L55.077 11.14L60.009 25ZM73.2733 25H61.8253V1.024H73.2733V4.876H66.2893V10.816H71.1133V14.344H66.2893V21.004H73.2733V25ZM87.8089 4.984H83.4169V25H78.9169V4.984H74.4889V1.024H87.8089V4.984ZM102.592 19.924C102.592 23.272 100.54 25 97.2643 25H89.7043V1.024H97.1923C100.468 1.024 102.484 2.788 102.484 6.1V8.692C102.484 10.744 101.692 12.292 99.6403 12.724C101.8 13.3 102.592 14.776 102.592 16.792V19.924ZM98.2003 9.412V6.424C98.2003 5.344 97.7323 4.696 96.6163 4.696H94.2043V11.284H96.4363C97.5883 11.284 98.2003 10.672 98.2003 9.412ZM98.2723 19.6V16.468C98.2723 15.208 97.6602 14.56 96.5083 14.56H94.2043V21.328H96.7243C97.8403 21.328 98.2723 20.716 98.2723 19.6ZM118.49 25H113.954L113.162 20.284H108.914L108.05 25H103.874L108.698 1.024H113.702L118.49 25ZM112.586 16.756L111.146 7.504L109.526 16.756H112.586ZM131.345 25H120.185V1.024H124.649V21.04H131.345V25ZM144.493 25H133.333V1.024H137.797V21.04H144.493V25ZM172.269 1.024L167.841 25H163.845L161.433 10.888L158.877 25H154.917L150.669 1.024H155.097L157.257 16.864L159.921 1.024H163.377L165.825 16.864L168.129 1.024H172.269ZM178.403 25H173.939V1.024H178.403V25ZM193.664 4.984H189.272V25H184.772V4.984H180.344V1.024H193.664V4.984ZM209.528 25H205.028V15.172H200.024V25H195.56V1.024H200.024V11.176H205.028V1.024H209.528V25ZM225.931 18.988C225.931 22.804 223.339 25.54 219.127 25.54C214.951 25.54 212.323 22.804 212.323 18.988V7.036C212.323 3.256 214.951 0.52 219.127 0.52C223.339 0.52 225.931 3.256 225.931 7.036V18.988ZM221.431 19.276V6.748C221.431 5.344 220.603 4.408 219.127 4.408C217.687 4.408 216.859 5.344 216.859 6.748V19.276C216.859 20.68 217.687 21.616 219.127 21.616C220.603 21.616 221.431 20.68 221.431 19.276ZM242.102 19.456C242.102 23.056 239.366 25.54 235.478 25.54C231.59 25.54 228.71 23.056 228.71 19.456V1.024H233.246V19.456C233.246 20.86 234.038 21.652 235.478 21.652C236.954 21.652 237.746 20.86 237.746 19.456V1.024H242.102V19.456ZM257.297 4.984H252.905V25H248.405V4.984H243.977V1.024H257.297V4.984ZM277.6 19.924C277.6 23.272 275.548 25 272.272 25H264.712V1.024H272.2C275.476 1.024 277.492 2.788 277.492 6.1V8.692C277.492 10.744 276.7 12.292 274.648 12.724C276.808 13.3 277.6 14.776 277.6 16.792V19.924ZM273.208 9.412V6.424C273.208 5.344 272.74 4.696 271.624 4.696H269.212V11.284H271.444C272.596 11.284 273.208 10.672 273.208 9.412ZM273.28 19.6V16.468C273.28 15.208 272.668 14.56 271.516 14.56H269.212V21.328H271.732C272.848 21.328 273.28 20.716 273.28 19.6ZM293.677 18.988C293.677 22.804 291.085 25.54 286.873 25.54C282.697 25.54 280.069 22.804 280.069 18.988V7.036C280.069 3.256 282.697 0.52 286.873 0.52C291.085 0.52 293.677 3.256 293.677 7.036V18.988ZM289.177 19.276V6.748C289.177 5.344 288.349 4.408 286.873 4.408C285.433 4.408 284.605 5.344 284.605 6.748V19.276C284.605 20.68 285.433 21.616 286.873 21.616C288.349 21.616 289.177 20.68 289.177 19.276ZM309.458 25H304.922L304.13 20.284H299.882L299.018 25H294.842L299.666 1.024H304.67L309.458 25ZM303.554 16.756L302.114 7.504L300.494 16.756H303.554ZM324.941 25.144H322.241C320.477 25.144 319.793 23.704 319.793 21.616V17.116C319.793 16 319.217 15.064 317.957 15.064H315.617V25H311.153V1.024H318.533C321.809 1.024 324.005 2.896 324.005 6.244V9.628C324.005 11.428 323.177 12.76 321.305 13.336C323.177 13.84 324.077 15.424 324.077 16.972V21.364C324.077 22.48 324.401 23.236 324.941 23.812V25.144ZM319.649 9.844V6.424C319.649 5.344 319.181 4.696 318.065 4.696H315.617V11.752H317.885C319.037 11.752 319.649 11.14 319.649 9.844ZM340.438 18.736C340.438 22.552 338.098 25 333.886 25H326.974V1.024H333.886C338.098 1.024 340.438 3.724 340.438 7.504V18.736ZM335.938 18.52V7.54C335.938 5.812 335.218 4.876 333.562 4.876H331.438V21.148H333.562C335.218 21.148 335.938 20.212 335.938 18.52ZM354.734 25H343.286V1.024H354.734V4.876H347.75V10.816H352.574V14.344H347.75V21.004H354.734V25ZM370.926 25.144H368.226C366.462 25.144 365.778 23.704 365.778 21.616V17.116C365.778 16 365.202 15.064 363.942 15.064H361.602V25H357.138V1.024H364.518C367.794 1.024 369.99 2.896 369.99 6.244V9.628C369.99 11.428 369.162 12.76 367.29 13.336C369.162 13.84 370.062 15.424 370.062 16.972V21.364C370.062 22.48 370.386 23.236 370.926 23.812V25.144ZM365.634 9.844V6.424C365.634 5.344 365.166 4.696 364.05 4.696H361.602V11.752H363.87C365.022 11.752 365.634 11.14 365.634 9.844ZM385.558 18.916C385.558 22.768 382.894 25.54 378.934 25.54C374.83 25.54 372.274 23.092 372.274 19.348V17.692H376.378V19.096C376.378 20.86 377.206 21.832 378.826 21.832C380.41 21.832 381.202 20.896 381.202 19.42C381.202 17.512 379.978 16.216 377.602 14.452C375.154 12.688 372.49 10.312 372.49 6.964C372.49 3.508 374.722 0.52 379.042 0.52C382.822 0.52 385.342 3.112 385.342 6.676V8.224H381.274V6.784C381.274 5.308 380.518 4.228 379.006 4.228C377.71 4.228 376.846 5.056 376.846 6.388C376.846 8.404 378.034 9.448 380.698 11.392C383.542 13.516 385.558 15.676 385.558 18.916ZM406.665 25H402.129L401.337 20.284H397.089L396.225 25H392.049L396.873 1.024H401.877L406.665 25ZM400.761 16.756L399.321 7.504L397.701 16.756H400.761ZM420.925 18.916C420.925 22.768 418.261 25.54 414.301 25.54C410.197 25.54 407.641 23.092 407.641 19.348V17.692H411.745V19.096C411.745 20.86 412.573 21.832 414.193 21.832C415.777 21.832 416.569 20.896 416.569 19.42C416.569 17.512 415.345 16.216 412.969 14.452C410.521 12.688 407.857 10.312 407.857 6.964C407.857 3.508 410.089 0.52 414.409 0.52C418.189 0.52 420.709 3.112 420.709 6.676V8.224H416.641V6.784C416.641 5.308 415.885 4.228 414.373 4.228C413.077 4.228 412.213 5.056 412.213 6.388C412.213 8.404 413.401 9.448 416.065 11.392C418.909 13.516 420.925 15.676 420.925 18.916ZM427.801 25H423.337V1.024H427.801V25ZM444.107 25H439.571L438.779 20.284H434.531L433.667 25H429.491L434.315 1.024H439.319L444.107 25ZM438.203 16.756L436.763 7.504L435.143 16.756H438.203Z" fill="white"/>
</svg>
